<svg xmlns="http://www.w3.org/2000/svg" viewBox="0 0 86.19 85.98"><defs><style>.cls-1{isolation:isolate;}.cls-2{fill:#f3f3f3;}.cls-3{fill:#4bc3f2;}.cls-4{fill:#72cff2;}.cls-5{fill:#4ac3f2;}.cls-6{fill:#59c8f2;}.cls-7{fill:none;stroke:#59c8f2;stroke-miterlimit:10;stroke-width:3px;}</style></defs><title>Recurso 9</title><g id="Capa_2" data-name="Capa 2"><g id="Iconos" class="cls-1"><g id="Capa_11_Imagen" data-name="Capa 11 Imagen"><path class="cls-2" d="M0,42.51C.81,30.57,4.86,20.15,13.86,11.76,22.68,3.54,33-.47,45,0A41.52,41.52,0,0,1,74.69,13.91,41.31,41.31,0,0,1,86.15,44.62,41.52,41.52,0,0,1,72,74.72,41.28,41.28,0,0,1,41.2,85.92a41.93,41.93,0,0,1-29.65-14C3.85,63.57.52,53.7,0,42.51ZM30.2,30l-1,1a2.85,2.85,0,0,0-2,2.94L26.25,35a3.54,3.54,0,0,0-.08.92L25.3,37l0,1c-1.47,4.46-.72,8.75,1,13L29.17,55l3,3c3.32,3.39,7.47,4.29,12,4,6.55-.43,12-2.77,15-9l1-2,1-2.94a13,13,0,0,0,0-10.15,3.57,3.57,0,0,0-.07-.92V35.05L60.27,34l-2-2.11L53.21,27c-5.79-4.25-11.82-3.86-18-1l-4,2.94Z"/><path class="cls-3" d="M31.17,31l-.94,1"/><path class="cls-4" d="M26.17,35.9,25.3,37Z"/><path class="cls-2" d="M27.27,49.87l-1-9.8L27.17,38a3.65,3.65,0,0,0,.07-.93L28.11,36l2.12-4,.94-1,1-1,4.14-2.93c1.92-.35,3.84-.72,5.76-1.06,3.59-.62,6.68,1.28,10,2L57.22,33l2.92,5.11.1,1.89v6l-1,4-1,2c-2.66,3.94-6.52,6.25-11.36,7.94a20.74,20.74,0,0,1-13.63-3l-3-3M40,47.1,35.47,43,34,45.19C36,47,37.3,49.25,39.34,50L52.06,37.46,50.6,35.9Z"/><path class="cls-3" d="M32.26,58l.92-.92Z"/><path class="cls-4" d="M27.17,38l-.91,2.09"/><path class="cls-4" d="M28.11,36l-.87,1.06Z"/><path class="cls-5" d="M32.14,30l-.9-.91Z"/><path class="cls-3" d="M30.15,54l-.91.9Z"/><path class="cls-6" d="M40,47.1,50.6,35.9l1.46,1.56L39.34,50c-2-.73-3.3-3-5.35-4.79L35.47,43Z"/><circle class="cls-7" cx="43.31" cy="42.08" r="18.01"/></g></g></g></svg>