<svg xmlns="http://www.w3.org/2000/svg" viewBox="0 0 87 87"><defs><style>.cls-1{isolation:isolate;}.cls-2{fill:#f3f3f3;}.cls-3{fill:#71cef2;}</style></defs><title>Recurso 11</title><g id="Capa_2" data-name="Capa 2"><g id="Iconos" class="cls-1"><g id="Capa_7_Imagen" data-name="Capa 7 Imagen"><circle class="cls-2" cx="43.5" cy="43.5" r="43.5"/><path class="cls-3" d="M44.49,59a4,4,0,0,1-1.91.14,7.31,7.31,0,0,1-1.78-.66c-1.15-.52-2.26-1.1-3.38-1.67A43.46,43.46,0,0,1,31,52.74a22.57,22.57,0,0,1-5.28-5.61,14.86,14.86,0,0,1-2.48-7.44A15.93,15.93,0,0,1,25,32.12a13.27,13.27,0,0,1,2.12-3.25,6.71,6.71,0,0,1,3.29-2.09,6.94,6.94,0,0,1,3.86.19,14.33,14.33,0,0,1,3.45,1.68,29,29,0,0,1,5.75,5h-.89a24.54,24.54,0,0,1,5.34-5.33,13.7,13.7,0,0,1,3.45-1.83,7.61,7.61,0,0,1,4.11-.26,7.43,7.43,0,0,1,3.6,2.06,13.29,13.29,0,0,1,2.32,3.22c.33.57.56,1.16.83,1.75s.44,1.19.66,1.79a18.59,18.59,0,0,1,.85,3.79,14.53,14.53,0,0,1-1.18,7.69,16.47,16.47,0,0,1-4.79,6,30.25,30.25,0,0,1-6.37,3.88A53.59,53.59,0,0,1,44.49,59Zm-.06-.19a30.89,30.89,0,0,0,12.44-7.3,17.69,17.69,0,0,0,3.91-5.75,13.23,13.23,0,0,0,.81-6.68,18,18,0,0,0-.76-3.37l-.6-1.66c-.25-.52-.44-1.08-.72-1.58-1-2-2.49-3.92-4.5-4.41s-4.28.34-6.22,1.58a26.46,26.46,0,0,0-5.34,4.7l-.47.54-.42-.53a25.58,25.58,0,0,0-5.26-5.13,12,12,0,0,0-3.24-1.67,6,6,0,0,0-3.52-.16,5.66,5.66,0,0,0-2.85,2A11.8,11.8,0,0,0,26,32.55a14.77,14.77,0,0,0-1.06,7,15.57,15.57,0,0,0,2.33,6.61,29.17,29.17,0,0,0,4.62,5.59,40.71,40.71,0,0,0,5.83,4.58,37.19,37.19,0,0,0,3.23,1.88,5.88,5.88,0,0,0,1.7.68A3.83,3.83,0,0,0,44.43,58.82Z"/></g></g></g></svg>