<svg xmlns="http://www.w3.org/2000/svg" viewBox="0 0 86 86"><defs><style>.cls-1{isolation:isolate;}.cls-2{fill:#f3f3f3;}.cls-3{fill:#4cc4f2;}.cls-4{fill:#4dc4f2;}.cls-5{fill:#5ac8f2;}.cls-6{fill:#59c8f2;}.cls-7{fill:#58c7f2;}.cls-8{fill:#57c7f2;}.cls-9{fill:#4ac3f2;}.cls-10{fill:#66cbf2;}.cls-11{fill:#4ec4f2;}.cls-12{fill:#f0f2f3;}.cls-13{fill:#d7ebf3;}</style></defs><title>Recurso 6</title><g id="Capa_2" data-name="Capa 2"><g id="Iconos" class="cls-1"><g id="Capa_8_Imagen" data-name="Capa 8 Imagen"><path class="cls-2" d="M47.61,90C24.1,90,5,70.42,5,46.36,5,23,24.71,4,48.88,4,71.93,4,91,23.81,91,47.64,91,70.79,71.3,90,47.61,90ZM61.08,42.22l-3,1.85c.13,2.84-2.28,6.25,1.83,8.19L63,53.92,66,55a26.52,26.52,0,0,0,0-14.88l-1.06.08-1,.73a1.29,1.29,0,0,0-.82.26ZM54,58a42.94,42.94,0,0,0,0-21.07A59.65,59.65,0,0,0,30,37a40.22,40.22,0,0,0,0,20.89A55.75,55.75,0,0,0,54,58Z" transform="translate(-5 -4)"/><path class="cls-3" d="M30,37a59.65,59.65,0,0,1,24-.08L52.9,38l-21.75,0Z" transform="translate(-5 -4)"/><path class="cls-4" d="M54,58a55.75,55.75,0,0,1-23.95-.1l1.14-1,21.7,0Z" transform="translate(-5 -4)"/><path class="cls-5" d="M31.19,56.91l-1.14,1A40.22,40.22,0,0,1,30,37l1.13,1Q31.17,47.49,31.19,56.91Z" transform="translate(-5 -4)"/><path class="cls-6" d="M54,58,52.89,57q0-9.45,0-18.91L54,36.94A42.94,42.94,0,0,1,54,58Z" transform="translate(-5 -4)"/><path class="cls-7" d="M66,40.16A26.52,26.52,0,0,1,66,55c0-.67,0-1.34,0-2Z" transform="translate(-5 -4)"/><path class="cls-8" d="M66,40.16,65.94,53l-1.1-.1c-.08-3.58.92-7.22-.59-10.72l-1.18-1a1.29,1.29,0,0,1,.82-.26l1-.73Z" transform="translate(-5 -4)"/><path class="cls-9" d="M59.94,52.26c-4.11-1.94-1.7-5.35-1.83-8.19l1.08,1.16c0,2-.31,4,.79,5.83Z" transform="translate(-5 -4)"/><path class="cls-8" d="M59.94,52.26c0-.4,0-.8,0-1.2L64,53l-1,.93Z" transform="translate(-5 -4)"/><path class="cls-10" d="M59.19,45.24l-1.08-1.17,3-1.86,1.12.91Z" transform="translate(-5 -4)"/><path class="cls-11" d="M63,53.92,64,53c.27,0,.55-.05.82-.06l1.1.1c0,.67,0,1.34,0,2Z" transform="translate(-5 -4)"/><path class="cls-7" d="M62.2,43.12l-1.12-.91,2-1,1.18,1Z" transform="translate(-5 -4)"/><path class="cls-7" d="M64.94,40.24l-1,.73Z" transform="translate(-5 -4)"/><path class="cls-12" d="M52.9,38q0,9.47,0,18.91l-21.7,0q0-9.42-.05-18.84Z" transform="translate(-5 -4)"/><path class="cls-13" d="M62.2,43.12l2-.91c1.51,3.5.51,7.14.59,10.72-.27,0-.55,0-.82.06l-4-1.93c-1.1-1.83-.79-3.85-.79-5.83Z" transform="translate(-5 -4)"/></g></g></g></svg>