<svg xmlns="http://www.w3.org/2000/svg" viewBox="0 0 95.15 93.16"><defs><style>.cls-1{isolation:isolate;}.cls-2{fill:#fefefe;}.cls-3{fill:#f3f3f3;}.cls-4{fill:#4ec4f2;}.cls-5{fill:#52c6f2;}.cls-6{fill:#53c6f2;}.cls-7{fill:#50c5f2;}.cls-8{fill:#57c7f2;}.cls-9{fill:#68ccf2;}.cls-10{fill:#f2f3f3;}.cls-11{fill:#edf1f3;}</style></defs><title>Recurso 3</title><g id="Capa_2" data-name="Capa 2"><g id="Iconos" class="cls-1"><g id="Capa_6_Imagen" data-name="Capa 6 Imagen"><path class="cls-2" d="M48.44,94c-14.84,0-29.67-.09-44.5.08-2.67,0-3-.8-3-3.14q.12-43.5,0-87c0-2.66.8-3,3.14-3q44.51.12,89,0c2.66,0,3,.8,3,3.14q-.12,43.5,0,87c0,2.66-.8,3-3.14,3C78.1,94,63.27,94,48.44,94Z" transform="translate(-0.92 -0.92)"/><path class="cls-3" d="M48.17,3A43,43,0,1,1,5,45,43.18,43.18,0,0,1,48.17,3Z" transform="translate(-0.92 -0.92)"/><path class="cls-4" d="M44,44.09c-.69,3,1.75,4,3.36,5.61,4,3.94,4,7.3-.21,11.44-.86.37-1.3-.12-1.66-.79-.19-6.16-1-7.06-7.45-8.57-.67-.33-1.2-.75-1-1.61,1.2-.38,3,.13,2.93-2.08-.72-1.26-.49-2.61-.38-4a3.47,3.47,0,0,1,4.32-1.44A.88.88,0,0,1,44,44.09Z" transform="translate(-0.92 -0.92)"/><path class="cls-5" d="M44,44.09l-.15-1.36c-1-1.47-.34-3.19-.71-4.78-.78-3.38-2.63-5.56-6.14-6.17-.66-.35-1.18-.79-1-1.64,4.2-2.21,8.72-.85,13.09-1.08,1.6-.09.83.72.15,1.32s-2.54.39-1.67,2.66C49.84,38.91,49.36,39.87,44,44.09Z" transform="translate(-0.92 -0.92)"/><path class="cls-6" d="M37,50.17l1,.86c.22,1-.45,1.48-1.11,2-1.45,1.08-3.26,2.07-2.54,4.27s2.76,3.1,5,3.42c1.46.2,3,0,4.39.5.68.32,1.23.72,1.09,1.59a16.38,16.38,0,0,1-10.73.84c-3.12-.68-5.63-2.46-6-5.88s2.19-5.37,5-6.64C34.39,50.58,35.62,49.86,37,50.17Z" transform="translate(-0.92 -0.92)"/><path class="cls-6" d="M36,30.14l1,.89c-1.4,4.9-.18,9.22,2.93,13.11l0,4c-1-1.3-1.14-3.09-3.51-3.5a6.4,6.4,0,0,1-5.69-6.5C30.66,34.19,32.17,31.39,36,30.14Z" transform="translate(-0.92 -0.92)"/><path class="cls-7" d="M59.77,38.09c-2.14-.48-6.4.18-6.14-.73.77-2.74,4-.75,6.17-1.44a1.75,1.75,0,0,1,2.26.06c2.12.56,6.06-1.06,6.06,1s-3.92.47-6,1A1.81,1.81,0,0,1,59.77,38.09Z" transform="translate(-0.92 -0.92)"/><path class="cls-8" d="M62.06,36l-2.26-.06c.57-2.14-.22-6.44.8-6.17C63.33,30.46,61.31,33.84,62.06,36Z" transform="translate(-0.92 -0.92)"/><path class="cls-8" d="M59.77,38.09,62.09,38c-.8,2.12,1.25,5.53-1.48,6.21C59.56,44.51,60.39,40.22,59.77,38.09Z" transform="translate(-0.92 -0.92)"/><path class="cls-9" d="M44.9,62.78l-1.15-.94c.14-1.37.64-2.29,2.26-1.82l1.18,1.12A3.16,3.16,0,0,1,44.9,62.78Z" transform="translate(-0.92 -0.92)"/><path class="cls-10" d="M46,60l-2.26,1.82c-2.29.08-4.58.51-6.83-.38s-4.23-2.3-4.29-4.88c-.07-2.35,1.46-3.91,3.75-4.63a9,9,0,0,0,1.7-.92C45.15,51.12,48,54.34,46,60Z" transform="translate(-0.92 -0.92)"/><path class="cls-11" d="M40,44.14c-5.52-3.62-6.51-8-2.93-13.11,6.11.35,8.68,4.75,6.82,11.7Z" transform="translate(-0.92 -0.92)"/></g></g></g></svg>