<svg xmlns="http://www.w3.org/2000/svg" viewBox="0 0 86 86"><defs><style>.cls-1{isolation:isolate;}.cls-2{fill:#f3f3f3;}.cls-3{fill:#55c7f2;}.cls-4{fill:#63caf2;}.cls-5{fill:#4ac3f2;}.cls-6{fill:#77d0f2;}</style></defs><title>Recurso 7</title><g id="Capa_2" data-name="Capa 2"><g id="Iconos" class="cls-1"><g id="Capa_9_Imagen" data-name="Capa 9 Imagen"><path class="cls-2" d="M51.87,3A43,43,0,1,1,9,45,43.2,43.2,0,0,1,51.87,3ZM65.94,30.09l-32.88.07a13.89,13.89,0,0,0-1,3.45C32,39.75,32,45.89,32,52v5.82H37l-2.78-1.6V31.13H64.83l.75,3.63C67,32.1,67,32.1,65.94,30.09Zm6,33.84c.33-.67.94-1.34,1-2Q73,50,72.93,38.1c0-.66-.64-1.31-1-2H38.3v27.8Z" transform="translate(-9.01 -3)"/><path class="cls-3" d="M72,63.93H38.3V36.13H72l-1.19,1H40.21V62.92H70.83Z" transform="translate(-9.01 -3)"/><path class="cls-4" d="M34.19,31.13V56.25L37,57.85H32V52c0-6.14-.06-12.28,0-18.42a13.89,13.89,0,0,1,1-3.45Z" transform="translate(-9.01 -3)"/><path class="cls-4" d="M72,63.93l-1.15-1-.07-25.79,1.19-1c.34.66,1,1.31,1,2q.1,11.91,0,23.82C72.92,62.59,72.31,63.26,72,63.93Z" transform="translate(-9.01 -3)"/><path class="cls-5" d="M34.19,31.13l-1.13-1,32.88-.07-1.11,1.05Z" transform="translate(-9.01 -3)"/><path class="cls-6" d="M64.83,31.14l1.11-1.05c1,2,1,2-.36,4.68Z" transform="translate(-9.01 -3)"/><path class="cls-2" d="M70.76,37.13l.07,25.79H40.21V37.13Z" transform="translate(-9.01 -3)"/></g></g></g></svg>