<svg xmlns="http://www.w3.org/2000/svg" viewBox="0 0 92.93 95.93"><defs><style>.cls-1{isolation:isolate;}.cls-2{fill:#fefefe;}.cls-3{fill:#f3f3f3;}.cls-4{fill:#4ac3f2;}.cls-5{fill:#84d4f2;}.cls-6{fill:#71cef2;}.cls-7{fill:#4bc4f2;}.cls-8{fill:#60c9f2;}.cls-9{fill:#4cc4f2;}.cls-10{fill:#5ec9f2;}.cls-11{fill:#4dc4f2;}.cls-12{fill:#4fc5f2;}.cls-13{fill:#bae3f3;}.cls-14{fill:#cbe8f3;}</style></defs><title>Recurso 4</title><g id="Capa_2" data-name="Capa 2"><g id="Iconos" class="cls-1"><g id="Capa_5_Imagen" data-name="Capa 5 Imagen"><path class="cls-2" d="M94,97H1V1H94Z" transform="translate(-1.04 -1.04)"/><path class="cls-3" d="M47.07,93A43,43,0,1,1,90,50.93,43.2,43.2,0,0,1,47.07,93Z" transform="translate(-1.04 -1.04)"/><path class="cls-4" d="M50.94,38.82H27.7v-.58H50.93Z" transform="translate(-1.04 -1.04)"/><path class="cls-4" d="M43.61,50.21H66.28v.52H43.69Z" transform="translate(-1.04 -1.04)"/><path class="cls-4" d="M50.94,63.82H27.7v-.58H50.93Z" transform="translate(-1.04 -1.04)"/><path class="cls-5" d="M60.08,38.82,57,40.89a6.24,6.24,0,0,1-.79-1,5.48,5.48,0,0,1-.55-2.48c.13-.74.77-1,1.31-1.27l3.18,2.08Z" transform="translate(-1.04 -1.04)"/><path class="cls-6" d="M37.05,53.83c-2.73-2.4-2.72-2.71.06-5.58.63.23,1.22.5,1.31,1.29a10.2,10.2,0,0,1-.6,3.23A4.71,4.71,0,0,1,37.05,53.83Z" transform="translate(-1.04 -1.04)"/><path class="cls-5" d="M60.08,63.82,57,65.89a5.82,5.82,0,0,1-.79-1,5.48,5.48,0,0,1-.55-2.48c.13-.74.77-1,1.31-1.27l3.18,2.08Z" transform="translate(-1.04 -1.04)"/><path class="cls-6" d="M50.94,38.82a5.56,5.56,0,0,0,0-.58l3.16-2a1.68,1.68,0,0,1,1.26,1.1,6.93,6.93,0,0,1,.07,2.36c-.22.63-.8.83-1.33,1.09Z" transform="translate(-1.04 -1.04)"/><path class="cls-6" d="M50.94,63.82a5.56,5.56,0,0,0,0-.58l3.16-2a1.68,1.68,0,0,1,1.26,1.1,6.93,6.93,0,0,1,.07,2.36c-.22.63-.8.83-1.33,1.09Z" transform="translate(-1.04 -1.04)"/><path class="cls-7" d="M60.08,38.82a5.82,5.82,0,0,1,0-.59h6.26v.59Z" transform="translate(-1.04 -1.04)"/><path class="cls-8" d="M40.92,49.09l-.7,4a1.36,1.36,0,0,1-1.25.17c-.82-1.23-.32-2.61-.44-3.91A1.43,1.43,0,0,1,39,48.15a1.88,1.88,0,0,1,.91,0A2.8,2.8,0,0,1,40.92,49.09Z" transform="translate(-1.04 -1.04)"/><ellipse class="cls-9" cx="29.44" cy="49.5" rx="4.19" ry="0.36"/><path class="cls-7" d="M60.08,63.82a5.82,5.82,0,0,1,0-.59h6.26v.59Z" transform="translate(-1.04 -1.04)"/><path class="cls-10" d="M55.08,37.05l-1-.8,2.83-.1-1,.92C55.64,37.42,55.35,37.41,55.08,37.05Z" transform="translate(-1.04 -1.04)"/><path class="cls-7" d="M54.09,40.8,55,40a1.52,1.52,0,0,1,2-.31v1.18Z" transform="translate(-1.04 -1.04)"/><path class="cls-11" d="M39.07,53l1.15,0-3.17.77q0-.46,0-.93A1.45,1.45,0,0,1,39.07,53Z" transform="translate(-1.04 -1.04)"/><path class="cls-10" d="M55.08,62.05l-1-.8,2.83-.1-1,.92C55.64,62.42,55.35,62.41,55.08,62.05Z" transform="translate(-1.04 -1.04)"/><path class="cls-7" d="M54.09,65.8,55,65a1.52,1.52,0,0,1,2-.31v1.18Z" transform="translate(-1.04 -1.04)"/><path class="cls-12" d="M39,48.15c0,.28,0,.56,0,.84a.56.56,0,0,1-1,0l-.89-.75Z" transform="translate(-1.04 -1.04)"/><path class="cls-13" d="M40.92,49.09l-1-1Z" transform="translate(-1.04 -1.04)"/><path class="cls-14" d="M57,39.71,55,40l.11-3a4.83,4.83,0,0,1,.85,0Z" transform="translate(-1.04 -1.04)"/><path class="cls-13" d="M38,49h1l.07,4-2-.13Z" transform="translate(-1.04 -1.04)"/><path class="cls-14" d="M57,64.71,55,65l.11-3a4.83,4.83,0,0,1,.85,0Z" transform="translate(-1.04 -1.04)"/></g></g></g></svg>