<svg xmlns="http://www.w3.org/2000/svg" viewBox="0 0 93.18 92.12"><defs><style>.cls-1{isolation:isolate;}.cls-2{fill:#fefefe;}.cls-3{fill:#f3f3f3;}.cls-4{fill:#54c6f2;}.cls-5{fill:#72cff2;}.cls-6{fill:#71cef2;}.cls-7{fill:#66cbf2;}.cls-8{fill:#60c9f2;}.cls-9{fill:#61caf2;}.cls-10{fill:#4ac3f2;}.cls-11{fill:#57c7f2;}.cls-12{fill:#56c7f2;}.cls-13{fill:#55c6f2;}.cls-14{fill:#73cff2;}.cls-15{fill:#e6eff3;}.cls-16{fill:#e2eef3;}.cls-17{fill:#aadef3;}.cls-18{fill:#6dcdf2;}.cls-19{fill:#70cef2;}.cls-20{fill:#6fcef2;}.cls-21{fill:#deedf3;}</style></defs><title>Recurso 10</title><g id="Capa_2" data-name="Capa 2"><g id="Iconos" class="cls-1"><g id="Capa_10_Imagen" data-name="Capa 10 Imagen"><path class="cls-2" d="M46.61,92.06c-14.67,0-29.33,0-44,.06-2,0-2.62-.29-2.61-2.51q.15-43.5,0-87C0,.56.3,0,2.52,0q44,.15,88,0c2,0,2.62.29,2.61,2.51-.1,29-.14,58,.05,87,0,3-1.3,2.55-3.07,2.55Z"/><path class="cls-3" d="M45.87,88.06a43,43,0,1,1,.89-86A43.34,43.34,0,0,1,89.11,46C88.88,68.77,69.22,88.07,45.87,88.06Z"/><path class="cls-4" d="M44.08,43c-3.61.83-5-2-6.46-4.25-.6-.9,1.21-2.45,2-2.27a6.36,6.36,0,0,1,5.26,5.55A1.3,1.3,0,0,1,44.08,43Z"/><path class="cls-5" d="M60,57.17a2.16,2.16,0,0,1,2.7,1.36c.39,1.26-.69,1.95-1.7,2.47a2.79,2.79,0,0,1-2-1.36,1.88,1.88,0,0,1-.27-1.2A2.11,2.11,0,0,1,60,57.17Z"/><path class="cls-6" d="M40.07,31.74c-1.12-.39-1-1.27-.92-2,0-.58.11-1.44,1-1.24s.84,1.2.81,1.94S40.83,31.71,40.07,31.74Z"/><path class="cls-6" d="M39.8,46.46c1.08-.06,1.14.69,1.18,1.27.05.75.23,1.72-.82,2s-1-.67-1-1.25C39.07,47.68,39,46.84,39.8,46.46Z"/><path class="cls-7" d="M59.05,59.06A3.29,3.29,0,0,1,61,61c-2,1.73-2.34-.19-3-1.42L58,59A.74.74,0,0,1,59.05,59.06Z"/><path class="cls-8" d="M34.94,34.05c-1.7-.16-2.82-.77-2.59-1.66.47-1.83,1.29-.25,1.86.13C34.51,32.72,34.58,33.26,34.94,34.05Z"/><path class="cls-8" d="M45.2,34.16c.42-1.56,1.14-2.68,2-2.44,1.75.51.3,1.32-.18,1.86C46.74,33.85,46.19,33.86,45.2,34.16Z"/><path class="cls-9" d="M33.67,44.1c.75.16,1.38.26.94.87a4.56,4.56,0,0,1-1.69,1.49c-.51.24-.86-.41-.61-.83A9.41,9.41,0,0,1,33.67,44.1Z"/><path class="cls-10" d="M46.1,43.16c.82-.08,1.56,0,1.92.92a2,2,0,0,1-1.28.52l-.67-.25c-.12-.2-.25-.4-.37-.61C45.83,43.55,46,43.35,46.1,43.16Z"/><path class="cls-11" d="M49.11,50.81a1.45,1.45,0,0,1-.94-1.65.63.63,0,0,1,.88-.17,1.66,1.66,0,0,1,.48.9A1.34,1.34,0,0,1,49.11,50.81Z"/><path class="cls-10" d="M50,46.08l1,1a1.58,1.58,0,0,1-1,.48A1.91,1.91,0,0,1,49,47a1.34,1.34,0,0,1,0-1.14A.77.77,0,0,1,50,46.08Z"/><path class="cls-10" d="M47.07,44.06l1,0,1,1a1.8,1.8,0,0,1-1.08.58l-.62-.13-.5-.39A.8.8,0,0,1,47.07,44.06Z"/><path class="cls-12" d="M49.11,50.81a5.58,5.58,0,0,1-.08-.57c.08-.47.34-.62.78-.44a1.89,1.89,0,0,1,.69,1,1.53,1.53,0,0,1-.39,1.08Z"/><path class="cls-10" d="M53,49.08l1,1a1.58,1.58,0,0,1-1,.48A1.79,1.79,0,0,1,52,50a1.27,1.27,0,0,1,0-1.14A.77.77,0,0,1,53,49.08Z"/><path class="cls-10" d="M48.07,45.06l1,0c.33.33.66.67,1,1l-.91,0-.55.4-.65-.21A.87.87,0,0,1,48.07,45.06Z"/><path class="cls-10" d="M53.11,50.05l.91,0,1,1a1.51,1.51,0,0,1-1,.48,1.88,1.88,0,0,1-1-.49A.79.79,0,0,1,53.11,50.05Z"/><path class="cls-13" d="M50.11,51.83c0-.2-.06-.4-.08-.6.08-.48.34-.62.79-.44a1.87,1.87,0,0,1,.68,1,1.53,1.53,0,0,1-.39,1.08Z"/><path class="cls-10" d="M54.1,51.06l.92,0,1,1a1.51,1.51,0,0,1-1,.5,1.88,1.88,0,0,1-1-.49A.79.79,0,0,1,54.1,51.06Z"/><path class="cls-13" d="M51.11,52.82a5.59,5.59,0,0,1-.08-.59c.08-.47.34-.62.79-.44a1.87,1.87,0,0,1,.68,1,1.53,1.53,0,0,1-.39,1.08Z"/><path class="cls-10" d="M55.1,52.06H56l1,1a1.51,1.51,0,0,1-1,.5,1.88,1.88,0,0,1-1-.49A.79.79,0,0,1,55.1,52.06Z"/><path class="cls-4" d="M52.11,53.82a5.59,5.59,0,0,1-.08-.59c.08-.46.34-.62.79-.44a1.87,1.87,0,0,1,.68,1,1.53,1.53,0,0,1-.39,1.08Z"/><path class="cls-10" d="M56.1,53.06H57l1,1a1.53,1.53,0,0,1-1,.5,1.91,1.91,0,0,1-1-.49A.79.79,0,0,1,56.1,53.06Z"/><path class="cls-4" d="M53.11,54.82a5.59,5.59,0,0,1-.08-.59c.08-.48.35-.61.79-.44a1.87,1.87,0,0,1,.68,1,1.53,1.53,0,0,1-.39,1.08Z"/><path class="cls-10" d="M53,49.08l-.91,0A.79.79,0,0,1,51,49,1.31,1.31,0,0,1,51,47.86a.81.81,0,0,1,1.07.22Z"/><path class="cls-10" d="M57.1,54.06H58l1,1a1.4,1.4,0,0,1-1,.53,2,2,0,0,1-1-.51A.8.8,0,0,1,57.1,54.06Z"/><path class="cls-4" d="M54.11,55.82a5.59,5.59,0,0,1-.08-.59c.07-.48.35-.61.79-.44a1.87,1.87,0,0,1,.68,1,1.56,1.56,0,0,1-.39,1.09Z"/><path class="cls-10" d="M58.11,55.06H59c.81.27.83.62.1,1a.83.83,0,0,1-1.06,0A.77.77,0,0,1,58.11,55.06Z"/><path class="cls-4" d="M55.11,56.83c0-.2-.06-.4-.08-.6.08-.47.34-.63.79-.44a1.8,1.8,0,0,1,.68,1,1.5,1.5,0,0,1-.4,1.08Z"/><path class="cls-4" d="M56.1,57.83c0-.2-.05-.4-.07-.61q.15-.7.81-.42a1.94,1.94,0,0,1,.69,1,1.23,1.23,0,0,1-.43,1.06Z"/><path class="cls-10" d="M52,48.08l-.91,0a.76.76,0,0,1-1,0,.77.77,0,0,1,0-1l.91,0C51.35,47.41,51.68,47.75,52,48.08Z"/><path class="cls-4" d="M57.1,58.83c0-.2-.05-.4-.07-.61a.78.78,0,0,1,1.15,0A.79.79,0,0,1,58,59.35l.08.24Z"/><path class="cls-14" d="M44.08,43l.77-1c.08.35.16.69.25,1a.9.9,0,0,1-1,.38Z"/><path class="cls-15" d="M44.06,43.47l1-.38L45.05,43c.15.2.3.41.46.61l-.56.53Z"/><path class="cls-16" d="M46,45.19l-1-1,.11-.1a.58.58,0,0,1,1,0v0l.45.6Z"/><path class="cls-16" d="M46.92,46.2l-1-1,.1-.12a.6.6,0,0,1,1,0h0l.44.63Z"/><path class="cls-14" d="M46.05,44.09l-.5,0h-.49c0-.34,0-.69,0-1l1,.11C46.07,43.47,46.06,43.78,46.05,44.09Z"/><path class="cls-16" d="M47,46.81a2.1,2.1,0,0,0-.09-.61l.14-.13a.6.6,0,0,1,1,0l0,0a.68.68,0,0,1-.06,1A.66.66,0,0,1,47,46.81Z"/><path class="cls-17" d="M47,46.81l1.13.25.29.3,0,.42-.32.27Z"/><path class="cls-17" d="M49,49.18l-.39,0-.39,0-.09-1.11,0,0,.56-.41.62.32.15.67Z"/><path class="cls-18" d="M58.16,56l1,.14c0,.33-.08.67-.13,1l-.44.34L58,57.34l-.34-.45c0-.19,0-.37,0-.56Z"/><path class="cls-18" d="M60,57.17,59.2,58l-.54-.42.41-.55-.06.06Z"/><path class="cls-17" d="M58,59.35l0-1.19.5-.54.59.44.14,0-.15,1Z"/><path class="cls-19" d="M47.06,45.07h-1v-1h1C47.07,44.4,47.06,44.73,47.06,45.07Z"/><path class="cls-17" d="M50,50.18l-.47,0-.45.09c0-.35-.05-.71-.08-1.06l.21-.21.59-.29.55.35.09.66Z"/><path class="cls-19" d="M48.14,47.06c0-.32-.09-.64-.11-1l1.08-.05a4.59,4.59,0,0,0,.06.91l-.51.55-.59-.45Z"/><path class="cls-19" d="M50.11,47.05a3.86,3.86,0,0,0,.07.9l-.52.56-.59-.5v.05c-.26-.22-.35-.44-.26-.66s.17-.33.25-.33l.11-.11A3.7,3.7,0,0,0,50.11,47.05Z"/><path class="cls-19" d="M48.06,46.07h-1v-1h1C48.07,45.4,48.06,45.73,48.06,46.07Z"/><path class="cls-17" d="M51,51.16l-.47,0-.46.08c0-.34-.05-.69-.08-1l.21-.21.58-.3.56.35c0,.22.06.43.1.65Z"/><path class="cls-19" d="M51.18,49a5.88,5.88,0,0,0,.93.1,4.59,4.59,0,0,0,.06.91l-.52.45-.58-.35h0l-.5-.59Z"/><path class="cls-19" d="M53.11,50.05a5.62,5.62,0,0,0,0,.92l-.54.42L52,51.22l-.33-.62c.15-.17.3-.35.44-.53l.11-.11A3.7,3.7,0,0,0,53.11,50.05Z"/><path class="cls-20" d="M54.1,51.06a4.69,4.69,0,0,0,.06.92l-.55.41L53,52.22l-.3-.61.41-.54.09-.09A5.08,5.08,0,0,0,54.1,51.06Z"/><path class="cls-17" d="M52,52.16l-.47,0-.46.09c0-.36,0-.71-.07-1.07l.11-.1a.61.61,0,0,1,1,0h0l.44.6C52.33,51.83,52.15,52,52,52.16Z"/><path class="cls-18" d="M55.1,52.06a5.68,5.68,0,0,0,0,.92l-.54.41L54,53.22l-.3-.61.41-.54.09-.09A5.08,5.08,0,0,0,55.1,52.06Z"/><path class="cls-17" d="M53,53.16l-.48,0-.46.09c0-.36,0-.71-.07-1.07l.11-.1a.61.61,0,0,1,1,0h0l.44.6Z"/><path class="cls-18" d="M56.1,53.06a5.68,5.68,0,0,0,0,.92l-.54.41L55,54.22l-.3-.61.41-.54.09-.09A5,5,0,0,0,56.1,53.06Z"/><path class="cls-17" d="M54,54.16l-.48,0-.46.09L53,53.16l.1-.1a.61.61,0,0,1,1,0h0l.44.6Z"/><path class="cls-18" d="M57.1,54.06a4.64,4.64,0,0,0,.06.91l-.54.42L56,55.23c-.1-.21-.2-.41-.31-.61l.41-.55.09-.09A5,5,0,0,0,57.1,54.06Z"/><path class="cls-17" d="M55,55.16l-.48,0-.46.09L54,54.16l.1-.1a.61.61,0,0,1,1,0h0l.44.6Z"/><path class="cls-19" d="M50.18,48a3.63,3.63,0,0,0,.93.1,3,3,0,0,0,.07.9l-.21.21a.56.56,0,0,1-.9-.15l0,.05c-.26-.17-.37-.35-.32-.57s.1-.33.17-.33Z"/><path class="cls-18" d="M58.11,55.06a3.1,3.1,0,0,0,0,.91l-.1.1-.53.42-.61-.27a.82.82,0,0,1,.14-1.15l.1-.1A5,5,0,0,0,58.11,55.06Z"/><path class="cls-17" d="M56,56.16l-.48,0-.46.09L55,55.16l.1-.1a.61.61,0,0,1,1,0h0l.44.6Z"/><path class="cls-17" d="M57,57.16l-.48,0-.46.09L56,56.16l.1-.1a.61.61,0,0,1,1,0h0l.44.6Z"/><path class="cls-17" d="M58,58.16l-.47,0-.47.09L57,57.16l.1-.1a.61.61,0,0,1,1,0h0c.25.22.34.45.25.67s-.17.33-.25.33Z"/><path class="cls-16" d="M49.06,47.07c0,.33,0,.66,0,1h-1c0-.34,0-.67,0-1Z"/><path class="cls-16" d="M50,48.16a6.5,6.5,0,0,1,.15.9,4.49,4.49,0,0,1-1-.08,4.49,4.49,0,0,1-.08-1A6.5,6.5,0,0,1,50,48.16Z"/><path class="cls-21" d="M58.07,58.06c0-.33,0-.66,0-1h1c0,.34,0,.67,0,1h-1Z"/><path class="cls-21" d="M58.07,57.06h-1c0-.33,0-.66,0-1h1C58.06,56.4,58.07,56.73,58.07,57.06Z"/><path class="cls-16" d="M50.07,49a6.5,6.5,0,0,1,.9.15,6.5,6.5,0,0,1,.15.9,4.49,4.49,0,0,1-1-.08A4.49,4.49,0,0,1,50.07,49Z"/><path class="cls-16" d="M52.07,51.06h-1c0-.33,0-.66,0-1h1C52.06,50.4,52.07,50.73,52.07,51.06Z"/><path class="cls-16" d="M53.07,52.06h-1c0-.33,0-.66,0-1h1C53.06,51.4,53.07,51.73,53.07,52.06Z"/><path class="cls-21" d="M54.07,53.06h-1c0-.33,0-.66,0-1h1C54.06,52.4,54.07,52.73,54.07,53.06Z"/><path class="cls-21" d="M55.07,54.06h-1c0-.33,0-.66,0-1h1C55.06,53.4,55.07,53.73,55.07,54.06Z"/><path class="cls-21" d="M56.07,55.06h-1c0-.33,0-.66,0-1h1C56.06,54.4,56.07,54.73,56.07,55.06Z"/><path class="cls-21" d="M57.07,56.06h-1c0-.33,0-.66,0-1h1C57.06,55.4,57.07,55.73,57.07,56.06Z"/></g></g></g></svg>