<svg xmlns="http://www.w3.org/2000/svg" viewBox="0 0 118.17 118.17"><defs><style>.cls-1{isolation:isolate;}.cls-2{fill:#fefefe;}.cls-3{fill:#daf2fc;}.cls-4{fill:#f9f9f9;}.cls-5{fill:#59c8f3;}.cls-6{fill:#6bcef4;}.cls-7{fill:#7bd3f5;}.cls-8{fill:#4dc4f2;}.cls-9{fill:#4fc5f2;}.cls-10{fill:#4bc3f2;}.cls-11{fill:#4cc4f2;}.cls-12{fill:#65cbf4;}.cls-13{fill:#6ccdf4;}.cls-14{fill:#c8ebfb;}.cls-15{fill:#68ccf4;}.cls-16{fill:#67cbf4;}.cls-17{fill:#85d5f6;}.cls-18{fill:#58c6f3;}.cls-19{fill:#4ac3f2;}.cls-20{fill:#52c6f2;}.cls-21{fill:#d4f0fc;}.cls-22{fill:#b9e6f9;}.cls-23{fill:#d0eefb;}.cls-24{fill:#bfe8fa;}.cls-25{fill:#c8ebfa;}.cls-26{fill:#5fc9f3;}.cls-27{fill:#5cc8f3;}.cls-28{fill:#62caf3;}.cls-29{fill:#a3def7;}.cls-30{fill:#79d0f5;}.cls-31{fill:#7bd0f5;}.cls-32{fill:#bbe6f9;}.cls-33{fill:#cdedfb;}.cls-34{fill:#56c7f3;}.cls-35{fill:#73cef4;}</style></defs><title>Recurso 2</title><g id="Capa_2" data-name="Capa 2"><g id="Iconos" class="cls-1"><g id="Capa_2_Imagen" data-name="Capa 2 Imagen"><path class="cls-2" d="M119,119c-38.17,0-76.33,0-114.5.08-3,0-3.59-.6-3.58-3.58Q1.1,60,.92,4.5c0-3,.6-3.59,3.58-3.58q55.5.18,111,0c3,0,3.59.6,3.58,3.58C119,42.67,119,80.83,119,119Z" transform="translate(-0.92 -0.92)"/><path class="cls-3" d="M62,12.93c19.34.39,34.25,9,43.63,25.71,10.16,18.16,9.09,36.76-3,53.55C83.53,118.9,47.46,118.7,27.16,99,11.47,83.76,7.83,58.59,17,40.79c1.37-2.66,2.41-3.9,5.54-2.09,6.79,3.95,13.66,3,19.61-1.62,6.19-4.77,9.25-11.27,7.18-19.32-.67-2.6.11-3.41,2.73-3.91A48.66,48.66,0,0,1,62,12.93Z" transform="translate(-0.92 -0.92)"/><path class="cls-4" d="M41.11,6.45c-9.32-3.3-10.46-3.3-20.1.13C25.61,1.65,34.85,1.52,41.11,6.45Z" transform="translate(-0.92 -0.92)"/><path class="cls-4" d="M15.6,11.9c-3.38,6.81-3.3,13.45.63,20.7C10.65,27.39,10.52,18.15,15.6,11.9Z" transform="translate(-0.92 -0.92)"/><path class="cls-5" d="M29.89,26.87c1.17,2.54,4.21,0,5.87,2.46-3.08,1.29-6.09.55-9.1.57-.61-2.32,1.16-2.91,2.43-3.83l.39.13.28.28Z" transform="translate(-0.92 -0.92)"/><path class="cls-6" d="M32,23a7.47,7.47,0,0,0,.89-4.81c0-.18,0-.37,0-.55a7.44,7.44,0,0,0,1-.52c2.27,2.64,1.22,4.78-1,6.76A1.55,1.55,0,0,1,32,23Z" transform="translate(-0.92 -0.92)"/><path class="cls-7" d="M32,17.79l-5.43.6c.34-1.8,1.42-2,2.53-2.23C29.85,17.11,32,15.57,32,17.79Z" transform="translate(-0.92 -0.92)"/><path class="cls-8" d="M32,17.79l-2.9-1.63c1.37-.11,2.79-.57,4,.56A.76.76,0,0,1,33,17.84l-.09.37Z" transform="translate(-0.92 -0.92)"/><path class="cls-9" d="M32,23l.91.88-1,1a1.22,1.22,0,0,1-.78-.8Z" transform="translate(-0.92 -0.92)"/><path class="cls-9" d="M31.17,24.06l.78.8-1,1a1.15,1.15,0,0,1-.76-.77Z" transform="translate(-0.92 -0.92)"/><path class="cls-9" d="M30.18,25.06l.76.77-1.05,1-.07-.09c-.22-.2-.42-.4-.62-.62l-.11-.09C29.46,25.74,29.82,25.4,30.18,25.06Z" transform="translate(-0.92 -0.92)"/><path class="cls-10" d="M33,17.84c0-.38.06-.75.08-1.12a1.36,1.36,0,0,1,.84.42Z" transform="translate(-0.92 -0.92)"/><path class="cls-11" d="M55.87,74.2a19.85,19.85,0,0,0,12.22,0,.8.8,0,0,1,1.12,0A2.59,2.59,0,0,1,69.72,76a2.5,2.5,0,0,1-.58,1.16A.85.85,0,0,1,68,77,18.4,18.4,0,0,0,56,76.91l-.42.48a1.47,1.47,0,0,1-1-.66,3.15,3.15,0,0,1-.21-1.89A2.33,2.33,0,0,1,55,73.76.62.62,0,0,1,55.87,74.2Z" transform="translate(-0.92 -0.92)"/><path class="cls-12" d="M67.08,58l.7,1.06c-.29.43-.57.41-.83,0-3-.44-6.2,1.31-8.94-1a.7.7,0,0,1-.37-.63c0-.26,0-.39.11-.39a1.88,1.88,0,0,1,1.12-.37c.75.09,1.5.3,2.26.36.55,0,1.1,0,1.65,0a13.11,13.11,0,0,0,2.15-.39,2.51,2.51,0,0,1,1.12.11C66.57,57,66.7,57.58,67.08,58Z" transform="translate(-0.92 -0.92)"/><path class="cls-11" d="M43.28,67.1h7.4A2.87,2.87,0,0,1,52,68h0l.42.59a1.45,1.45,0,0,1-.95,1c-2.74-.1-5.48-.32-8.24-.24a1.29,1.29,0,0,1-.66-1.14A1.14,1.14,0,0,1,43.28,67.1Z" transform="translate(-0.92 -0.92)"/><path class="cls-13" d="M85,72a5.75,5.75,0,0,1,0,7,.89.89,0,0,1-1.13,0,2.37,2.37,0,0,1-.47-1.76,7.23,7.23,0,0,0,.13-2.93,3.22,3.22,0,0,1,.08-1.2A1.81,1.81,0,0,1,85,72Z" transform="translate(-0.92 -0.92)"/><path class="cls-13" d="M39,79a5.75,5.75,0,0,1,0-7,1.81,1.81,0,0,1,1.39,1.24c-.21,1.89.65,3.82-.25,5.68A.88.88,0,0,1,39,79Z" transform="translate(-0.92 -0.92)"/><path class="cls-14" d="M71,69V67c.31-.43.47-1,1.17-1L74.07,67c.43.42,1.11.62,1.21,1.34-.42,1.49-1.55,1.9-2.94,1.9A2.52,2.52,0,0,1,71,69Z" transform="translate(-0.92 -0.92)"/><path class="cls-15" d="M81,83.07c-1.51,1.16-3.05,2.17-5,1a.94.94,0,0,1,0-1.33,6.12,6.12,0,0,1,5-1A.83.83,0,0,1,81,83.07Z" transform="translate(-0.92 -0.92)"/><path class="cls-15" d="M48,84.07c-2,1.17-3.52.16-5-1a.68.68,0,0,1-.25-.68c0-.24.12-.36.19-.36a1.93,1.93,0,0,1,1.13-.41c.63.06,1.24.18,1.86.3a4,4,0,0,1,2.33,1A.94.94,0,0,1,48,84.07Z" transform="translate(-0.92 -0.92)"/><path class="cls-11" d="M74.92,68.23,74.07,67C76.39,67.24,79,66,81,68.1a.73.73,0,0,1-.11,1,2.17,2.17,0,0,1-1.17.24c-.61-.07-1.22-.16-1.83-.22C76.82,69,75.72,69.09,74.92,68.23Z" transform="translate(-0.92 -0.92)"/><path class="cls-15" d="M70,55l-.46.06-.45,0a1,1,0,0,1-1.23.13c-.59-1.86.38-3.12,1.65-4.26a1.26,1.26,0,0,1,1.3.06l.12,2C70.41,53.51,70.57,54.41,70,55Z" transform="translate(-0.92 -0.92)"/><path class="cls-16" d="M58,43c1.36-1.78,3.28-1,5-1.07a1,1,0,0,1,.3.86c-.06.3-.12.45-.2.45a6.25,6.25,0,0,1-5,1,.83.83,0,0,1-.35-.81Q57.87,43,58,43Z" transform="translate(-0.92 -0.92)"/><path class="cls-17" d="M69,61a5.26,5.26,0,0,1,1.9,3,.65.65,0,0,1-1.11,0,2.88,2.88,0,0,1-1.62-2.13A1.38,1.38,0,0,1,69,61Z" transform="translate(-0.92 -0.92)"/><path class="cls-18" d="M53.21,50l-.16-1.9c.52-.62.38-1.52.92-2.12a1.69,1.69,0,0,1,1,0l.5.46a2.9,2.9,0,0,1-1,3.64A1.19,1.19,0,0,1,53.21,50Z" transform="translate(-0.92 -0.92)"/><path class="cls-18" d="M71,48.12,70.8,50a1.15,1.15,0,0,1-1.25,0,2.9,2.9,0,0,1-1-3.65l.5-.46a1.69,1.69,0,0,1,1,0C70.57,46.6,70.43,47.5,71,48.12Z" transform="translate(-0.92 -0.92)"/><path class="cls-16" d="M63,42.89v-1c1.14,0,2.32-.17,3,1.07a.83.83,0,0,1,.24.81c-.09.26-.17.39-.25.39A2.5,2.5,0,0,1,63,42.89Z" transform="translate(-0.92 -0.92)"/><path class="cls-19" d="M53.21,50,54,50a2.67,2.67,0,0,1,1.27,2.89,1.43,1.43,0,0,1-1.13.58,1.31,1.31,0,0,1-1-.7Z" transform="translate(-0.92 -0.92)"/><path class="cls-20" d="M76,83.15c0,.31,0,.61,0,.92-1.13,0-2.29.12-3-1.1a.71.71,0,0,1-.31-.76c.09-.26.18-.4.27-.4A2.45,2.45,0,0,1,76,83.15Z" transform="translate(-0.92 -0.92)"/><path class="cls-20" d="M48,84.07c0-.31,0-.62,0-.93a1.63,1.63,0,0,1,.63-.83,4.36,4.36,0,0,1,1.46-.65,1.5,1.5,0,0,1,1,.39A.65.65,0,0,1,51,83C50.32,84.19,49.15,84.07,48,84.07Z" transform="translate(-0.92 -0.92)"/><path class="cls-19" d="M55.09,79,54,80c-.14-.15-.29-.29-.43-.43a3.31,3.31,0,0,1-.3-1.19A2.23,2.23,0,0,1,54,76.72a.81.81,0,0,1,1,.3L55,77A1.45,1.45,0,0,1,55.09,79Z" transform="translate(-0.92 -0.92)"/><path class="cls-18" d="M55.18,45A2.61,2.61,0,0,1,57,43.26a1.34,1.34,0,0,1,.45,1.05,1.7,1.7,0,0,1-1.26,1.18A1.27,1.27,0,0,1,55.18,45Z" transform="translate(-0.92 -0.92)"/><path class="cls-19" d="M70,80l-1.18-1A1.53,1.53,0,0,1,69,77L69,77c2-.13,1.72,1.15,1.52,2.4Z" transform="translate(-0.92 -0.92)"/><path class="cls-19" d="M68.88,72.07c.6-.8.94-1.86,2.11-2.08l.44.41a2.15,2.15,0,0,1,0,1.18,1.78,1.78,0,0,1-1.44,1l-.6-.1Z" transform="translate(-0.92 -0.92)"/><path class="cls-18" d="M67,43.26A2.61,2.61,0,0,1,68.82,45a1.27,1.27,0,0,1-1,.47,1.7,1.7,0,0,1-1.26-1.17A1.32,1.32,0,0,1,67,43.26Z" transform="translate(-0.92 -0.92)"/><path class="cls-18" d="M72.17,66,71,67l-.78-2c.26-.38.5-.37.73,0Z" transform="translate(-0.92 -0.92)"/><path class="cls-19" d="M54.9,71.19a3.2,3.2,0,0,0,.2.81A1.46,1.46,0,0,1,55,74L55,74a.84.84,0,0,1-1.08.29,2.52,2.52,0,0,1-.74-1.71,3.64,3.64,0,0,1,.26-1.26l.41-.5A.76.76,0,0,1,54.9,71.19Z" transform="translate(-0.92 -0.92)"/><path class="cls-18" d="M69,61c-.28.29-.56.58-.83.88-.32-.64-.63-1.28-.94-1.92.26-.38.51-.36.74,0Z" transform="translate(-0.92 -0.92)"/><path class="cls-14" d="M69,74a4.15,4.15,0,0,0-.93.19,1.94,1.94,0,0,1,.8-2.11l.44-.14a1.76,1.76,0,0,1,.1,1.65Z" transform="translate(-0.92 -0.92)"/><path class="cls-21" d="M70,55,71,52.93A2.12,2.12,0,0,1,70,55Z" transform="translate(-0.92 -0.92)"/><path class="cls-18" d="M39.75,73,39,72l1-1,.42.46C40.52,72.08,40.47,72.65,39.75,73Z" transform="translate(-0.92 -0.92)"/><path class="cls-18" d="M85,72l-.73,1a1.08,1.08,0,0,1-.76-.89c0-.21.07-.42.11-.63l.43-.47Z" transform="translate(-0.92 -0.92)"/><path class="cls-21" d="M71,48.12c-.3-.71-.61-1.42-.92-2.12A2.07,2.07,0,0,1,71,48.12Z" transform="translate(-0.92 -0.92)"/><path class="cls-22" d="M55.09,79,55,77l1-.07A2.08,2.08,0,0,1,55.09,79Z" transform="translate(-0.92 -0.92)"/><path class="cls-14" d="M69,77l-.21,2A2.08,2.08,0,0,1,68,77Z" transform="translate(-0.92 -0.92)"/><path class="cls-19" d="M54.1,53l.6,0c.78.24.82.83.7,1.49L55,55l-1.25-1A.8.8,0,0,1,54.1,53Z" transform="translate(-0.92 -0.92)"/><path class="cls-22" d="M55,74c0-.67.09-1.35.13-2a2,2,0,0,1,.77,2.19A8.43,8.43,0,0,0,55,74Z" transform="translate(-0.92 -0.92)"/><path class="cls-18" d="M40.17,70A1.65,1.65,0,0,1,42,69l.23.6a1.73,1.73,0,0,1-.9.85A1.28,1.28,0,0,1,40.17,70Z" transform="translate(-0.92 -0.92)"/><path class="cls-18" d="M41,81.82A1.62,1.62,0,0,1,40,80l.59-.22a1.57,1.57,0,0,1,.83.87A1.54,1.54,0,0,1,41,81.82Z" transform="translate(-0.92 -0.92)"/><path class="cls-18" d="M84,80a1.62,1.62,0,0,1-1,1.8,1.62,1.62,0,0,1-.49-1l.12-.57.38-.46.58-.11Z" transform="translate(-0.92 -0.92)"/><path class="cls-18" d="M41,81.82c0-.26,0-.52,0-.78l.4-.45.59.13a1.67,1.67,0,0,1,.57,1,1.62,1.62,0,0,1-.53,1Z" transform="translate(-0.92 -0.92)"/><path class="cls-18" d="M83,81c0,.26,0,.52,0,.78l-1,1a1.4,1.4,0,0,1-.49-1.05,1.55,1.55,0,0,1,.53-1A.75.75,0,0,1,83,81Z" transform="translate(-0.92 -0.92)"/><path class="cls-21" d="M54,46c-.31.7-.62,1.41-.92,2.11A2.06,2.06,0,0,1,54,46Z" transform="translate(-0.92 -0.92)"/><path class="cls-18" d="M82,69a1.59,1.59,0,0,1,1.76,1,1.38,1.38,0,0,1-1,.52l-.58-.14L81.76,70c0-.19-.07-.39-.11-.59Z" transform="translate(-0.92 -0.92)"/><path class="cls-19" d="M56,56a.94.94,0,0,1-1-1l0,0a.83.83,0,0,1,1.14.3C56.07,55.55,56,55.78,56,56Z" transform="translate(-0.92 -0.92)"/><path class="cls-19" d="M68.18,55.05l.94,0L68,56l-.23-.53Z" transform="translate(-0.92 -0.92)"/><path class="cls-19" d="M57,57a1,1,0,0,1-1-1h0a.89.89,0,0,1,1.14.34C57.08,56.57,57,56.79,57,57Z" transform="translate(-0.92 -0.92)"/><path class="cls-19" d="M68,56a1,1,0,0,1-1,1c-.06-.22-.11-.44-.16-.66A.88.88,0,0,1,68,56Z" transform="translate(-0.92 -0.92)"/><path class="cls-19" d="M58,57.12c0,.28,0,.56,0,.84a1,1,0,0,1-1-1v0A.6.6,0,0,1,58,57.12Z" transform="translate(-0.92 -0.92)"/><path class="cls-19" d="M67.08,58l-1-.87A.6.6,0,0,1,67,57l0,0A2.44,2.44,0,0,1,67.08,58Z" transform="translate(-0.92 -0.92)"/><path class="cls-19" d="M68,60l-.75,0c-.08-.32-.16-.65-.25-1l.83,0C67.84,59.37,67.89,59.69,68,60Z" transform="translate(-0.92 -0.92)"/><path class="cls-19" d="M71,65l-.73,0c-.15-.32-.3-.64-.44-1l1.1,0A1.45,1.45,0,0,1,71,65Z" transform="translate(-0.92 -0.92)"/><path class="cls-23" d="M43.28,67.1l-.25,1A.6.6,0,0,1,42,68Z" transform="translate(-0.92 -0.92)"/><path class="cls-19" d="M42,68l1,.13a3.87,3.87,0,0,0,0,.68A.61.61,0,0,1,42,69l0,0C42,68.64,42,68.31,42,68Z" transform="translate(-0.92 -0.92)"/><path class="cls-23" d="M52,69c0-.34,0-.67,0-1l1.05.91A.65.65,0,0,1,52,69Z" transform="translate(-0.92 -0.92)"/><path class="cls-19" d="M81.06,68.75,81,68.1A.92.92,0,0,1,82,69h0a.54.54,0,0,1-.83.31Z" transform="translate(-0.92 -0.92)"/><path class="cls-19" d="M52,69l1-.09c0,.35,0,.7,0,1l-.43.33a1.13,1.13,0,0,1-.93-.44A.66.66,0,0,1,52,69Z" transform="translate(-0.92 -0.92)"/><path class="cls-19" d="M71,69l1.08,1-.56.37L71,70h0Z" transform="translate(-0.92 -0.92)"/><path class="cls-19" d="M40.17,70,41,70q.35,1.32-1,1L40,71A1.12,1.12,0,0,1,40.17,70Z" transform="translate(-0.92 -0.92)"/><path class="cls-19" d="M53,70A1.71,1.71,0,0,1,54,70c.25.23.33.45.24.68S54.05,71,54,71L54,71l-.52.44-.63-.24A.83.83,0,0,1,53,70Z" transform="translate(-0.92 -0.92)"/><path class="cls-22" d="M54,71c0-.34,0-.68,0-1l.92,1.18A5.83,5.83,0,0,0,54,71Z" transform="translate(-0.92 -0.92)"/><path class="cls-23" d="M52,68l-1.31-.9Z" transform="translate(-0.92 -0.92)"/><path class="cls-19" d="M39,79c.31,0,.63,0,.94,0l.39.47L40,80h0Z" transform="translate(-0.92 -0.92)"/><path class="cls-19" d="M84.09,79.05c.31,0,.61,0,.92,0l-1,1h0l-.37-.51Z" transform="translate(-0.92 -0.92)"/><path class="cls-19" d="M83,70q.39,0,.78,0a1.1,1.1,0,0,1,.25.94L84,71l-.53.4-.61-.27A.81.81,0,0,1,83,70Z" transform="translate(-0.92 -0.92)"/><path class="cls-19" d="M54,80a1,1,0,0,1-1,1l-.31-.44a1.13,1.13,0,0,1,.48-.91A.68.68,0,0,1,54,80Z" transform="translate(-0.92 -0.92)"/><path class="cls-19" d="M71,81a1,1,0,0,1-1-1l0,0a.84.84,0,0,1,1.14.32C71.07,80.57,71,80.8,71,81Z" transform="translate(-0.92 -0.92)"/><path class="cls-19" d="M57,44l0-.75L58,43c0,.28,0,.55,0,.82A.56.56,0,0,1,57,44Z" transform="translate(-0.92 -0.92)"/><path class="cls-19" d="M55.18,45,56,45c.24.87-.11,1.18-1,1l-.1-.08A1.14,1.14,0,0,1,55.18,45Z" transform="translate(-0.92 -0.92)"/><path class="cls-19" d="M53,81a1,1,0,0,1-1,1l-.36-.42c0-.19.07-.37.1-.55l.41-.38A.66.66,0,0,1,53,81Z" transform="translate(-0.92 -0.92)"/><path class="cls-19" d="M72,82a.93.93,0,0,1-1-1v0a.89.89,0,0,1,1.14.34C72.08,81.57,72,81.79,72,82Z" transform="translate(-0.92 -0.92)"/><path class="cls-19" d="M68,45l.82,0a1.14,1.14,0,0,1,.24.94L69,46C68.11,46.18,67.76,45.87,68,45Z" transform="translate(-0.92 -0.92)"/><path class="cls-19" d="M42,82.79c0-.24,0-.49,0-.73l.54-.39.39.55c0,.28,0,.57.07.85Z" transform="translate(-0.92 -0.92)"/><path class="cls-19" d="M70,50l.79,0a1.18,1.18,0,0,1,0,.94L70,51A.81.81,0,0,1,70,50Z" transform="translate(-0.92 -0.92)"/><path class="cls-19" d="M51,83c0-.26,0-.51.07-.77l.4-.53L52,82l0,0A.93.93,0,0,1,51,83Z" transform="translate(-0.92 -0.92)"/><path class="cls-19" d="M73,82.22,73,83a.93.93,0,0,1-1-1h0A.59.59,0,0,1,73,82.22Z" transform="translate(-0.92 -0.92)"/><path class="cls-21" d="M54.1,53c-.11.33-.22.66-.34,1l-.69-1.18Z" transform="translate(-0.92 -0.92)"/><path class="cls-19" d="M67,43.26,67,44c-.39.31-.7.23-1-.19,0-.27,0-.54,0-.82Z" transform="translate(-0.92 -0.92)"/><path class="cls-19" d="M82,82.06c0,.25,0,.49,0,.73l-1,.28c0-.28,0-.57,0-.86Q81.44,81.49,82,82.06Z" transform="translate(-0.92 -0.92)"/><path class="cls-9" d="M29.2,26.16a.7.7,0,0,1,.62.62A.64.64,0,0,1,29.2,26.16Z" transform="translate(-0.92 -0.92)"/><path class="cls-14" d="M82,82.06h-.49l-.47.15L76,83.15l-3-.94L72,82l-1-1-1-1c0-1.13.15-2.28-1-3,0-1,0-2,0-3l0,.07c.66-.55.44-1.45.84-2.1l1.3-1a3.25,3.25,0,0,1,.9-.91l.06,0,2.85-1.78,4.13-.06a3.52,3.52,0,0,0,1.23.74,7.2,7.2,0,0,0,.78-.16L81,69.1A4.67,4.67,0,0,1,82,70h0a8,8,0,0,1,1,1v0a3.4,3.4,0,0,1,.8,1c.15.34.31.67.47,1a8.71,8.71,0,0,0-.2.85,3.7,3.7,0,0,1,0,3.41v1.84L83.86,79A3.93,3.93,0,0,1,83,80l0,0c-.35.35-.65.74-1,1.1A4.31,4.31,0,0,0,82,82.06Z" transform="translate(-0.92 -0.92)"/><path class="cls-22" d="M54.12,73.79A3.5,3.5,0,0,0,55,74v3c-.3.07-.59.15-.88.24A2.29,2.29,0,0,1,54.12,73.79Z" transform="translate(-0.92 -0.92)"/><path class="cls-21" d="M66.05,43.81A1.37,1.37,0,0,0,67,44l1,1,1,1A7,7,0,0,0,70,50c0,.34,0,.67,0,1l-1.8,4A1.12,1.12,0,0,0,68,56l-1,1-.5,0-.47.17-.46,0H65.1c-.84.43-1.32,0-1.73-.69A5.19,5.19,0,0,1,63,55c-.31-2.08,1.1-4,.38-6.16a6.13,6.13,0,0,0-.91-1.52,1.12,1.12,0,0,0-1,0A5.06,5.06,0,0,0,60.58,49C59.94,51,61.32,53,61,55a5,5,0,0,1-.37,1.38c-.42.65-.91,1.11-1.75.69h-.47l-.46,0L57.5,57,57,57l-1-1c-.06-.62-.36-1-1-1l-.27-2L54,50A7,7,0,0,0,55,46l1-1,1-1a1.37,1.37,0,0,0,1-.19l5-.92Z" transform="translate(-0.92 -0.92)"/><path class="cls-24" d="M58.9,57.09l1.17-1.19a3.62,3.62,0,0,1,1-.65,3.74,3.74,0,0,1,1.82,0,3.62,3.62,0,0,1,1,.65l1.17,1.19a2.17,2.17,0,0,1-2.2.74,1.53,1.53,0,0,0-1.8,0A2.19,2.19,0,0,1,58.9,57.09Z" transform="translate(-0.92 -0.92)"/><path class="cls-3" d="M61.1,57.83q.9-1.36,1.8,0Z" transform="translate(-0.92 -0.92)"/><path class="cls-23" d="M40,71l1-1,1-1,1-.22c3-1.48,6-.58,9,.21,0,.34,0,.68,0,1l.42.44a1.5,1.5,0,0,1-.54,1c-.5.36-1,.68-1.5,1.06-.71.8-1.29,1.76-2.49,1.9-3.33.17-5.12,3-7.75,4.44l-.21.15c-.33-2-1.21-4-.17-6.08C39.84,72.31,39.93,71.67,40,71Z" transform="translate(-0.92 -0.92)"/><path class="cls-14" d="M84.09,77.21c0-1.13,0-2.27,0-3.41A2.26,2.26,0,0,1,84.09,77.21Z" transform="translate(-0.92 -0.92)"/><path class="cls-23" d="M51.06,82.2q-.42-.08-.84-.12a8.92,8.92,0,0,0-1.18.73l-1,.33L45,82.81a8.85,8.85,0,0,0-1.18-.72,5,5,0,0,0-.86.12L43,82c-.39-.28-.7-.64-1.06-1v0c1.14-3.59,4.19-1.94,6.49-2.36a6.15,6.15,0,0,1,3.3.83A1,1,0,0,1,52,81h0a3.31,3.31,0,0,1-1,.89Z" transform="translate(-0.92 -0.92)"/><path class="cls-25" d="M43.78,82.09l1.18.72Z" transform="translate(-0.92 -0.92)"/><path class="cls-14" d="M80.28,68.91l-1.23-.74Z" transform="translate(-0.92 -0.92)"/><path class="cls-25" d="M49,82.81l1.18-.73Z" transform="translate(-0.92 -0.92)"/><path class="cls-25" d="M52,81c0-.32,0-.64,0-1a6.71,6.71,0,0,1-.89-1.33,12.57,12.57,0,0,1,0-6.36A7.14,7.14,0,0,1,52,71h0a.6.6,0,0,1,1,0v.06a1.87,1.87,0,0,1,.78.91l.36,1.82,0,3.47c-.1.58-.21,1.17-.31,1.76A3.29,3.29,0,0,1,53,80l0,1Z" transform="translate(-0.92 -0.92)"/><path class="cls-22" d="M53,80l.84-1c.06.34.13.67.19,1Z" transform="translate(-0.92 -0.92)"/><path class="cls-19" d="M69.81,72a1.77,1.77,0,0,1-.84,2.1l.36-2.13Z" transform="translate(-0.92 -0.92)"/><path class="cls-14" d="M72,70.06l-.9.91c0-.33-.09-.66-.13-1Z" transform="translate(-0.92 -0.92)"/><path class="cls-22" d="M53.76,72,53,71.06,54,71C53.94,71.3,53.85,71.64,53.76,72Z" transform="translate(-0.92 -0.92)"/><path class="cls-14" d="M83.81,72c-.27-.32-.54-.64-.8-1l1,0C83.93,71.31,83.86,71.63,83.81,72Z" transform="translate(-0.92 -0.92)"/><path class="cls-25" d="M49,80c-2.34.43-4.95-.92-7.06,1.06l-.48,0L41,81l-1-1c.05-.37.11-.75.16-1.12,1.48-3.48,3.6-6,7.9-5l-.15.61c-.64,1.41-.82,2.74.63,3.81C49,78.77,49.36,79.27,49,80Z" transform="translate(-0.92 -0.92)"/><path class="cls-14" d="M83,80,83.86,79c0,.34.11.69.16,1Z" transform="translate(-0.92 -0.92)"/><path class="cls-14" d="M82,81.11,83,80c0,.34,0,.69,0,1h-.49Z" transform="translate(-0.92 -0.92)"/><path class="cls-25" d="M42,81c.35.32.7.64,1.06,1l-1,.09C42,81.72,42,81.37,42,81Z" transform="translate(-0.92 -0.92)"/><path class="cls-14" d="M82,70l-1-.89L82,69C82,69.32,82,69.66,82,70Z" transform="translate(-0.92 -0.92)"/><path class="cls-14" d="M83,71l-1-1h1C83,70.33,83,70.66,83,71Z" transform="translate(-0.92 -0.92)"/><path class="cls-22" d="M53,71H52V70h1C53,70.33,53,70.67,53,71Z" transform="translate(-0.92 -0.92)"/><path class="cls-25" d="M51,81.88,52,81c0,.35,0,.69.05,1Z" transform="translate(-0.92 -0.92)"/><path class="cls-26" d="M74.85,79.06c-4.14-1-2.35-3.71-1.85-6.07a1.71,1.71,0,0,1,1.22-.51l.66.22.42.54c-.15,2,1.23,3.87.76,5.94A.94.94,0,0,1,74.85,79.06Z" transform="translate(-0.92 -0.92)"/><path class="cls-26" d="M74.86,70.74c1.39.92,3-1.53,4.34.3a2.62,2.62,0,0,1,.3,1.22,2,2,0,0,1-.79,1c-1.24.23-2.48.51-3.68-.18l-.09-.1a2,2,0,0,1-.56-1.08A2.17,2.17,0,0,1,74.86,70.74Z" transform="translate(-0.92 -0.92)"/><path class="cls-27" d="M74.85,79.06l1.29-.12A2.76,2.76,0,0,1,77.58,78a5.46,5.46,0,0,1,1.74-.36,1.82,1.82,0,0,1,1,.62A1.44,1.44,0,0,1,80,79.92l0,0A.57.57,0,0,1,79,80C77.62,79.61,75.51,82.45,74.85,79.06Z" transform="translate(-0.92 -0.92)"/><path class="cls-12" d="M82,75.06c0,.32,0,.64,0,1a2,2,0,0,1-.63,1.13l-.59.29a1.6,1.6,0,0,1-1.16-.53,2.63,2.63,0,0,1,0-2.54,1.82,1.82,0,0,1,1.09-.65l.59.26C81.49,74.35,81.73,74.71,82,75.06Z" transform="translate(-0.92 -0.92)"/><path class="cls-12" d="M79.91,71.81c1.18.26,2.13.75,2.09,2.18l-.32.26-.4,0L81,74a2.73,2.73,0,0,1-1.26-1.09l-.06-.57C79.74,72.14,79.83,72,79.91,71.81Z" transform="translate(-0.92 -0.92)"/><path class="cls-19" d="M81.12,77.16,82,76l1,.68C82.51,77.59,81.85,77.51,81.12,77.16Z" transform="translate(-0.92 -0.92)"/><path class="cls-14" d="M81.12,77.16l1.8-.46c-.17,1-.84,1.23-1.7,1.25l-.6-.37.47-.52Z" transform="translate(-0.92 -0.92)"/><path class="cls-14" d="M73.83,73A5.7,5.7,0,0,0,73,73l.94-2.07.46.42C74.47,72,74.52,72.59,73.83,73Z" transform="translate(-0.92 -0.92)"/><path class="cls-28" d="M80,79.92l-.08-2,.5-.27.37.44.47-.09Z" transform="translate(-0.92 -0.92)"/><path class="cls-14" d="M79.05,71.82A5.36,5.36,0,0,1,79.2,71c.24.26.48.51.71.77l.12.37C79.56,72.46,79.22,72.35,79.05,71.82Z" transform="translate(-0.92 -0.92)"/><path class="cls-14" d="M73.94,70.92c.25-.37.51-.66.92-.18l.18.38c-.41.34-.76.32-1.06-.14Z" transform="translate(-0.92 -0.92)"/><path class="cls-14" d="M81.28,74.22A5.5,5.5,0,0,1,82,74c0,.36,0,.71,0,1.07Z" transform="translate(-0.92 -0.92)"/><path class="cls-28" d="M79,80l.94-.05C79.64,80.59,79.32,80.48,79,80Z" transform="translate(-0.92 -0.92)"/><path class="cls-29" d="M63.06,56H60.94a7.75,7.75,0,0,1-.85-.87c.46-2.38-2.49-4.7-.13-7.12a3.66,3.66,0,0,1,1.57,1.84,6.33,6.33,0,0,1,.3,1s.21.3.21.3a3.66,3.66,0,0,0,.18-.39,5.64,5.64,0,0,1,.33-1A3.29,3.29,0,0,1,64,48c2.36,2.42-.59,4.74-.13,7.12A7.75,7.75,0,0,1,63.06,56Z" transform="translate(-0.92 -0.92)"/><path class="cls-30" d="M64,48A2.19,2.19,0,0,1,63,50a1.33,1.33,0,0,1-2,0,2.19,2.19,0,0,1-1-2l1.19-2a1.2,1.2,0,0,1,1.7,0Z" transform="translate(-0.92 -0.92)"/><path class="cls-19" d="M62.85,45.93h-1.7C61.72,44.64,62.28,44.64,62.85,45.93Z" transform="translate(-0.92 -0.92)"/><path class="cls-31" d="M60.09,55.08l.85.87H60.5l-.43-.06A2.51,2.51,0,0,1,60.09,55.08Z" transform="translate(-0.92 -0.92)"/><path class="cls-31" d="M63.06,56l.85-.87a2.52,2.52,0,0,1,0,.82L63.5,56Z" transform="translate(-0.92 -0.92)"/><path class="cls-32" d="M49,80l-1-1a3.84,3.84,0,0,1,0-4.92l.09-.2L50,71a4.6,4.6,0,0,1,.79,1.18C51.48,74.39,50.14,77,52,79L52,80Z" transform="translate(-0.92 -0.92)"/><path class="cls-22" d="M50,71.89c0-.3,0-.59,0-.89h2l0,1.06A1.34,1.34,0,0,1,50,71.89Z" transform="translate(-0.92 -0.92)"/><path class="cls-12" d="M50,71.89,52,72V79C48.05,77.53,50.6,74.26,50,71.89Z" transform="translate(-0.92 -0.92)"/><path class="cls-19" d="M48,74.07,48,79C44.85,77.37,44.79,75.73,48,74.07Z" transform="translate(-0.92 -0.92)"/><path class="cls-19" d="M43.89,77.27c0,.64,0,1.3-.79,1.42s-1-.63-1-1.21c0-.4.27-1.07.57-1.16C43.34,76.11,43.84,76.49,43.89,77.27Z" transform="translate(-0.92 -0.92)"/><path class="cls-33" d="M80,74l0,3c.24.26.29.49.17.68S80,78,79.91,78l0-.09a2.05,2.05,0,0,0-.91.27l-1.1.82-1.74,0c-1.77-1.71-2.9-3.53-1.1-5.9a3.81,3.81,0,0,1,4-.13l.36.13a7.27,7.27,0,0,1,.54.57Z" transform="translate(-0.92 -0.92)"/><path class="cls-34" d="M74,71l1.06.14c0,.6-.07,1.21-.1,1.82H73.83Z" transform="translate(-0.92 -0.92)"/><path class="cls-19" d="M79.05,71.82l1,.36A7.49,7.49,0,0,0,80,73l-.49.37L79.07,73l0,0C79,72.55,79,72.18,79.05,71.82Z" transform="translate(-0.92 -0.92)"/><path class="cls-28" d="M77.87,79l1.1-.82Z" transform="translate(-0.92 -0.92)"/><path class="cls-19" d="M80,73l1,1H80a.57.57,0,0,1-.24-.64c.07-.22.14-.33.22-.33Z" transform="translate(-0.92 -0.92)"/><path class="cls-19" d="M79.91,78a2,2,0,0,1,.17-.94l1,0c-.11.32-.23.65-.34,1A4.78,4.78,0,0,0,79.91,78Z" transform="translate(-0.92 -0.92)"/><path class="cls-35" d="M62.91,51.94c-.09.74,0,1.74-1.13,1.53-.31-.06-.46-1-.69-1.53A1.24,1.24,0,0,1,62.91,51.94Z" transform="translate(-0.92 -0.92)"/><path class="cls-19" d="M62.91,51.94H61.09c0-.65-.06-1.29-.08-1.94h2C63,50.65,62.94,51.29,62.91,51.94Z" transform="translate(-0.92 -0.92)"/><path class="cls-12" d="M80,73c0,.32,0,.65,0,1l-1-1C79.38,73,79.69,73,80,73Z" transform="translate(-0.92 -0.92)"/></g></g></g></svg>