<svg xmlns="http://www.w3.org/2000/svg" viewBox="0 0 111.08 120.17"><defs><style>.cls-1{isolation:isolate;}.cls-2{fill:#fefefe;}.cls-3{fill:#daf2fc;}.cls-4{fill:#f9f9f9;}.cls-5{fill:#4cc4f2;}.cls-6{fill:#9adef7;}.cls-7{fill:#50c5f2;}.cls-8{fill:#4ec5f2;}.cls-9{fill:#4dc4f2;}.cls-10{fill:#7ad0f5;}.cls-11{fill:#7bd0f5;}.cls-12{fill:#5ac7f3;}.cls-13{fill:#4ec4f2;}.cls-14{fill:#5fc9f3;}.cls-15{fill:#55c6f3;}.cls-16{fill:#5bc8f3;}.cls-17{fill:#58c7f3;}.cls-18{fill:#61caf4;}.cls-19{fill:#60c9f3;}.cls-20{fill:#4ac3f2;}.cls-21{fill:#56c6f3;}.cls-22{fill:#51c5f3;}.cls-23{fill:#d2effb;}.cls-24{fill:#d5f0fc;}.cls-25{fill:#7dd1f5;}.cls-26{fill:#d3effb;}.cls-27{fill:#cbedfb;}.cls-28{fill:#d6f0fc;}.cls-29{fill:#53c5f3;}.cls-30{fill:#84d3f5;}.cls-31{fill:#cbecfb;}.cls-32{fill:#c2e9fa;}.cls-33{fill:#b6e5f9;}.cls-34{fill:#cdedfb;}.cls-35{fill:#ceeefb;}.cls-36{fill:#c1e9fa;}</style></defs><title>Recurso 13</title><g id="Capa_2" data-name="Capa 2"><g id="Iconos" class="cls-1"><g id="Capa_1_Imagen" data-name="Capa 1 Imagen"><path class="cls-2" d="M1,121V1c35.83,0,71.67.05,107.5-.08,3,0,3.59.6,3.58,3.58q-.18,56.51,0,113c0,3-.6,3.6-3.58,3.58C72.67,121,36.83,121,1,121Z" transform="translate(-1 -0.92)"/><path class="cls-3" d="M37,39c7.2-5.51,11.85-12.09,9.24-21.77-.69-2.55.81-2.94,3-3.31,17.2-3,31.92,1.31,44.81,13.41,17.7,16.62,20.28,45.29,5.72,65-19.54,26.49-55.42,26.31-75.66,6.53C8.45,83.65,4.76,58.41,14.18,40.66c.86-1.63,1.3-4.26,4.18-2.48,6.07,3.75,12.29,3.41,18.62.8.8,1.26-.45,2.2-.5,3.31a1.38,1.38,0,0,0,.83,1.2c1.83.41,3.07-1.12,4.69-1.38a61.89,61.89,0,0,1,7.46,0c2.55,1.26,5.18,2.47,4.92,6a25,25,0,0,0,0,3c.09,1.48.81,3-.54,4.32-2.52,1.39-5.26.69-7.9.87-.92.09-1.93,0-2.43,1A1.74,1.74,0,0,0,44,58.75a5.47,5.47,0,0,0,1.58.8c2.52.52,5.26-.42,7.59,1.22,1.51,2.47,0,3.92-1.75,5.32a5.23,5.23,0,0,1-1.88,1.34c-2.49.12-5,0-7.47.06-1.81.45-3.44-2.12-5.32-.31A1.45,1.45,0,0,0,37,68.66a1.56,1.56,0,0,0,2,.08,7.66,7.66,0,0,1,1.8-1c3.48-1,7.35,1,10.63-1.42,1.15-.7,2.17-.21,2.29.86.55,5,2,10.13-1,14.92a48,48,0,0,0-10.43-.63c-1.9.56-3.62-2-5.58-.33A1.39,1.39,0,0,0,37,82.65a1.63,1.63,0,0,0,2,.09,8.2,8.2,0,0,1,1.79-1c3.55-.12,7.15-1,10.55.74,1.88,1.18,3.13,3.14,5.84,3.23,5.68.17,6,.19,6.47-5.49a6.58,6.58,0,0,1,3.44-5.55c3.22-1.21,6.51-.69,9.78-.41,1.13.31,2.12,1.17,3.4.93a2.11,2.11,0,0,0,1.11-1,1.55,1.55,0,0,0-.31-1.45,2.23,2.23,0,0,0-2-.21,14,14,0,0,1-3,1.37c-3,.43-6-.47-9,.65-.7.38-1.37,1-2.24.37-2.14-4.4-1.39-8.93-.57-13.46,2.13-2.63,5.22-1.38,7.85-1.91A3.42,3.42,0,0,0,74.44,58a1.41,1.41,0,0,0-.06-1,2.47,2.47,0,0,0-1.92-.79c-2-.23-4.19.39-5.76-1.45a2.52,2.52,0,0,1-.18-1.41A7,7,0,0,1,67.9,51.7a3.47,3.47,0,0,1,1.81-1.16c2.63.1,5.28-.38,7.88.35,1.21.43,2.36,2.06,3.67.17A1.53,1.53,0,0,0,81.11,50c-1.76-1.44-3.14.67-4.75.48-2.5.11-5-.26-7.49.21A11.3,11.3,0,0,0,67.36,52a4.62,4.62,0,0,1-1.61,1.15,1.79,1.79,0,0,1-1.13-.53c-1-1.44-.51-3.22-1.17-4.73a6.67,6.67,0,0,0-1-1.39,5.82,5.82,0,0,0-1.43-1,10.5,10.5,0,0,0-3.94-.37,12.34,12.34,0,0,1-1.36,0,6.41,6.41,0,0,1-2-.39c-1.29-.59-2.06-1.89-3.37-2.47-2.79-.64-5.63,0-8.43-.4a4.82,4.82,0,0,1-1.82-.81,19.94,19.94,0,0,0-2.21-1.25A4.22,4.22,0,0,1,37,39Z" transform="translate(-1 -0.92)"/><path class="cls-4" d="M17.74,6.64c6-5,13.77-5,20.52,0C31.39,3.11,24.55,3.46,17.74,6.64Z" transform="translate(-1 -0.92)"/><path class="cls-4" d="M12.71,11.86a21.42,21.42,0,0,0,0,20.3A15.2,15.2,0,0,1,12.71,11.86Z" transform="translate(-1 -0.92)"/><path class="cls-5" d="M27,16.94c1.2-1.19,2.16-1,2.22.72a85.27,85.27,0,0,1-.38,11.73c-2.15-3.5-.09-7.55-1.72-11.07A.85.85,0,0,1,27,16.94Z" transform="translate(-1 -0.92)"/><path class="cls-6" d="M26.12,19.15c-.41.63-1,1-1.58.37s-.21-1.16.53-1.45C25.48,18.37,26.06,18.5,26.12,19.15Z" transform="translate(-1 -0.92)"/><path class="cls-7" d="M26.12,19.15l-1.05-1.08L27,16.94l.12,1.38Z" transform="translate(-1 -0.92)"/><path class="cls-8" d="M52,82c2-4.89.59-10,.72-15,0-.64-1.1-.21-1.7-.09l-.44-.26c.11-.32.23-.64.36-1,.91-1.42,2.48-2.55,1.9-4.58-.17-1,.27-1.41,1.25-1.29a5.32,5.32,0,0,1,1.26,3.65c.18,2.29,1.48,3.09,3.63,3.08s3.47-.76,3.7-3a5.5,5.5,0,0,1,1.26-3.67c1-.13,1.43.27,1.26,1.28.19,4.57-.81,9.18.56,13.71.32-.13.65-.25,1-.35L67,75c-2.17,2.07-2.19,4.78-1.87,7.4.47,3.84-1.1,4.93-4.76,4.67s-7.75.74-9.26-4.19l.13-.42.3-.32Z" transform="translate(-1 -0.92)"/><path class="cls-9" d="M66.94,54c2.16,1.71,4.76.31,7.06,1a.82.82,0,0,1,.32.74c0,.28-.09.42-.16.42-1.41,1.16-3.83.92-4.47,3.17-2.49,2.16-2.35-1.29-3.64-1.69-1.44-.65-2.86-.2-4.29,0a5.71,5.71,0,0,1-1.24,0,7.62,7.62,0,0,0-3,0,5.31,5.31,0,0,1-1.26,0c-1.45-.2-2.88-.65-4.32,0-1.27.38-1.15,3.84-3.61,1.67-.65-2.24-3-2-4.47-3.16A.86.86,0,0,1,44,55l9.73-.11c.8-.38,1.13-1.36,2.05-1.58,1.85-.25,3.73.2,5.57-.18a5.27,5.27,0,0,1,1.12.07,5.31,5.31,0,0,0,1.54,0l.48-.13S65,53,65,53h1l.45.15A2.69,2.69,0,0,0,66.94,54Z" transform="translate(-1 -0.92)"/><path class="cls-9" d="M66.91,73.76c3.23-1.59,6.68-.36,10-.81a1.06,1.06,0,0,1,1.23-.18,2.44,2.44,0,0,1,.58,1.9,2.2,2.2,0,0,1-.7,1.14c-3.56-1.72-7.32-.72-11-.8l-.09-.1A1,1,0,0,1,66.91,73.76Z" transform="translate(-1 -0.92)"/><path class="cls-10" d="M67,56c1.85.13,0,2.93,2.1,2.9a3.53,3.53,0,0,1,3.68-.58,2.41,2.41,0,0,1,1.4,1.77c-2.81,1.85-6,.3-9,1.08L64,60C63.71,57.74,66.17,57.5,67,56Z" transform="translate(-1 -0.92)"/><path class="cls-10" d="M48.92,58.9c2.13.09.25-2.77,2.12-2.87.79,1.47,3.25,1.71,2.92,4l-1.14,1.17c-2.94-.77-6.15.78-9-1.06a2.51,2.51,0,0,1,1.39-1.77A3.51,3.51,0,0,1,48.92,58.9Z" transform="translate(-1 -0.92)"/><path class="cls-11" d="M50.05,42.91,41.12,43l-.48-.42a1.45,1.45,0,0,1,.4-1.69c3.35.53,6.88-.84,10.11.94C51.07,42.53,50.48,42.63,50.05,42.91Z" transform="translate(-1 -0.92)"/><path class="cls-12" d="M50.05,42.91l1.1-1L54,44a1.49,1.49,0,0,0,2.12,0c.3,0,.6.05.9.1a1.78,1.78,0,0,1,.49,1.32,4,4,0,0,1-2.94,3A1.77,1.77,0,0,1,53.22,48C54,45.18,51.51,44.37,50.05,42.91Z" transform="translate(-1 -0.92)"/><path class="cls-13" d="M41.21,80.9c3.57.54,7.38-1.17,10.77,1.13l-.11.1a7.71,7.71,0,0,0-.7.7l-.05.06c-3.68-1-7.34-1.57-10.94.28l-.54-.44a1.86,1.86,0,0,1,.26-2A1.31,1.31,0,0,1,41.21,80.9Z" transform="translate(-1 -0.92)"/><path class="cls-7" d="M51,67c-3.15,2.86-7.47-.27-10.71,2.1a2,2,0,0,1-1.24.18,1.46,1.46,0,0,1-.3-1.19A2.44,2.44,0,0,1,40,66.64a2.06,2.06,0,0,1,1.24.25l8.51,0a1.08,1.08,0,0,1,1.18,0Z" transform="translate(-1 -0.92)"/><path class="cls-9" d="M68,51c2.69-2.19,5.86-.62,8.77-1.11a1.29,1.29,0,0,1,1.31-.12,2.35,2.35,0,0,1,.48,1.3,1.93,1.93,0,0,1-.66,1.19c-2.67-1.92-5.76-.73-8.62-1.16A1,1,0,0,1,68,51Z" transform="translate(-1 -0.92)"/><path class="cls-14" d="M64.1,47c1.8,1.79.65,4,.88,6l0,0a1.12,1.12,0,0,1-1.17.35,2.73,2.73,0,0,1-1.26-1.48,28.17,28.17,0,0,1-.25-3.9,2.49,2.49,0,0,1,.54-1.19A1.11,1.11,0,0,1,64.1,47Z" transform="translate(-1 -0.92)"/><path class="cls-15" d="M77.93,52.27,78,50.91a8.78,8.78,0,0,1,3.69-.52,1.82,1.82,0,0,1,1.08.59C81.72,53.44,80.43,55.16,77.93,52.27Z" transform="translate(-1 -0.92)"/><path class="cls-16" d="M41.22,66.89,39.85,67a10.33,10.33,0,0,1-3.58.57A1.82,1.82,0,0,1,35.22,67C37.14,63.42,39.16,64.41,41.22,66.89Z" transform="translate(-1 -0.92)"/><path class="cls-17" d="M41.21,80.9,40,81c-1.14.74-2.44.51-3.69.61A1.87,1.87,0,0,1,35.21,81C37.14,77.45,39.15,78.33,41.21,80.9Z" transform="translate(-1 -0.92)"/><path class="cls-17" d="M78.12,50,76.8,49.9c2-2.58,4.07-3.44,6,.13a1.32,1.32,0,0,1-1.07.43A8.63,8.63,0,0,1,78.12,50Z" transform="translate(-1 -0.92)"/><path class="cls-18" d="M56.18,53.89l-2.45,1c-.21-1.31-.43-2.61-.64-3.92a1.55,1.55,0,0,1,1.25-.44A2.76,2.76,0,0,1,56.18,53.89Z" transform="translate(-1 -0.92)"/><path class="cls-19" d="M41.12,43c-1.39,1.94-2.91,3.09-5,.93a2.52,2.52,0,0,1,.9-.75,8.77,8.77,0,0,1,2.88-.8,1.63,1.63,0,0,1,1,.56Z" transform="translate(-1 -0.92)"/><path class="cls-20" d="M35.33,43c-.8-1.89,1-2.72,1.65-4h0l1,.22a1.51,1.51,0,0,1,.5,1.18A3.8,3.8,0,0,1,36.57,43,1.2,1.2,0,0,1,35.33,43Z" transform="translate(-1 -0.92)"/><path class="cls-21" d="M57.06,45.23,57,44.15c1.75-.22,3.55-.79,5,.79a.77.77,0,0,1,0,1.26A5.59,5.59,0,0,1,57.06,45.23Z" transform="translate(-1 -0.92)"/><path class="cls-20" d="M39,70.07c-1.6,1.45-2.37.23-3.14-1l.49-.54A2.09,2.09,0,0,1,39,69l.06.08A.65.65,0,0,1,39,70.07Z" transform="translate(-1 -0.92)"/><path class="cls-20" d="M78,75.81c0-.3,0-.59,0-.89a2.35,2.35,0,0,1,2.27-.6,2.12,2.12,0,0,1,1,.7,1.6,1.6,0,0,1-.22,1.17C79.86,77.57,79,76.59,78,75.81Z" transform="translate(-1 -0.92)"/><path class="cls-20" d="M81.94,72c1.22.92,1.46,1.92.23,3a.85.85,0,0,1-1.08,0L81,75a3.78,3.78,0,0,1-.19-3.17A.76.76,0,0,1,81.94,72Z" transform="translate(-1 -0.92)"/><path class="cls-20" d="M39,84c-1.57,1.36-2.37.29-3.12-1a2.37,2.37,0,0,1,1.18-.76,2.71,2.71,0,0,1,2,.48A.93.93,0,0,1,39,84Z" transform="translate(-1 -0.92)"/><path class="cls-22" d="M74.14,60.12l-1.07-.95c.08-1,.74-1.45,1.63-1.68a1.41,1.41,0,0,1,1.1.5A2.42,2.42,0,0,1,74.14,60.12Z" transform="translate(-1 -0.92)"/><path class="cls-12" d="M40.87,43l-1,0a2,2,0,0,1-.53-1.79A2.22,2.22,0,0,1,40,40.09l1.07.84C41,41.61,40.93,42.3,40.87,43Z" transform="translate(-1 -0.92)"/><path class="cls-19" d="M74,56.12,74,55a2.28,2.28,0,0,1,1.84,2,1.21,1.21,0,0,1-1.07.42C74.12,57.23,73.74,56.86,74,56.12Z" transform="translate(-1 -0.92)"/><path class="cls-19" d="M44,55l0,1.15c.18.74-.23,1.1-.86,1.31A1.22,1.22,0,0,1,42.12,57,2.38,2.38,0,0,1,44,55Z" transform="translate(-1 -0.92)"/><path class="cls-16" d="M42.12,57l1.2.08c.79.54,1.31,1.16.67,2.15a1.47,1.47,0,0,1-1.24-.16A1.82,1.82,0,0,1,42.12,57Z" transform="translate(-1 -0.92)"/><path class="cls-12" d="M81.94,72l-1.1,0a1.53,1.53,0,0,1-1.89.18A.79.79,0,0,1,79,71.07C80.15,70.89,81.28,70.74,81.94,72Z" transform="translate(-1 -0.92)"/><path class="cls-9" d="M54.11,51h-1c0-1,.08-2,.13-2.95l1,0A2.18,2.18,0,0,1,54.11,51Z" transform="translate(-1 -0.92)"/><path class="cls-19" d="M79,71.07l0,1.11a.85.85,0,0,1-.87.86L76.9,73A3,3,0,0,1,79,71.07Z" transform="translate(-1 -0.92)"/><path class="cls-20" d="M40,40.09l0,1.07c-1,.3-1.52-.29-1.93-1.07,0-.29,0-.59,0-.89A1.7,1.7,0,0,1,40,40.09Z" transform="translate(-1 -0.92)"/><path class="cls-20" d="M36.93,83h-1a1.61,1.61,0,0,1-.67-2h.92C36.88,81.49,37.66,82,36.93,83Z" transform="translate(-1 -0.92)"/><path class="cls-20" d="M35.22,67l1,0a1.42,1.42,0,0,1-.07,1.78l-.29.27A1.7,1.7,0,0,1,35.22,67Z" transform="translate(-1 -0.92)"/><path class="cls-20" d="M68,51l1.28.1-1.11,1A.79.79,0,0,1,67.05,52Z" transform="translate(-1 -0.92)"/><path class="cls-20" d="M62,46c0-.35,0-.71,0-1.06l1.06.86a.78.78,0,0,1,0,1.05L63,47C62.1,47.22,61.75,46.9,62,46Z" transform="translate(-1 -0.92)"/><path class="cls-20" d="M35.33,43l.79,0c.81-.17,1.11.21,1.07,1l-1.12,0C35.82,43.65,35.58,43.32,35.33,43Z" transform="translate(-1 -0.92)"/><path class="cls-22" d="M42.75,59.08,44.07,59a.52.52,0,0,1,.87.18l-1.07,1Z" transform="translate(-1 -0.92)"/><path class="cls-23" d="M56.11,44.05c-.73.89-1.44,1.08-2.12,0Z" transform="translate(-1 -0.92)"/><path class="cls-20" d="M67.05,52l1.15.07-1,1a.77.77,0,0,1-1.09,0L66,53Z" transform="translate(-1 -0.92)"/><path class="cls-20" d="M50.91,66.9H49.73l1.19-1.13C50.92,66.15,50.91,66.53,50.91,66.9Z" transform="translate(-1 -0.92)"/><path class="cls-20" d="M66.91,73.76c0,.39,0,.77,0,1.15H65.74Z" transform="translate(-1 -0.92)"/><path class="cls-20" d="M39,70.07a5.15,5.15,0,0,1,0-1l1.2,0Z" transform="translate(-1 -0.92)"/><path class="cls-20" d="M81.74,50.06l1.05,0a1.13,1.13,0,0,1,0,.95l-1,0a.61.61,0,0,1-.21-.59C81.63,50.16,81.68,50.06,81.74,50.06Z" transform="translate(-1 -0.92)"/><path class="cls-20" d="M66.12,53.08h1.09a3,3,0,0,1-.27.91C66.67,53.68,66.39,53.38,66.12,53.08Z" transform="translate(-1 -0.92)"/><path class="cls-20" d="M74.79,57h1a1.28,1.28,0,0,1,0,1l-.94,0a.57.57,0,0,1-.25-.6C74.66,57.15,74.72,57,74.79,57Z" transform="translate(-1 -0.92)"/><path class="cls-20" d="M63.05,46.85l0-1.05,1,1.18Z" transform="translate(-1 -0.92)"/><path class="cls-20" d="M39,84v-.83A.58.58,0,0,1,40,83l.21.2Z" transform="translate(-1 -0.92)"/><path class="cls-20" d="M81.09,75.09l1.08,0c-.37.38-.73.76-1.1,1.13C81.08,75.82,81.08,75.46,81.09,75.09Z" transform="translate(-1 -0.92)"/><path class="cls-24" d="M54,60c-1-1.31-3.91-1.22-2.92-4,2-.05,4.08-.31,5.87,1a7.23,7.23,0,0,0,1.4.54,2.23,2.23,0,0,0,1.4,0A5.6,5.6,0,0,0,61.09,57C62.88,55.72,64.94,56,67,56,68,58.8,65,58.71,64,60c0,.83-.1,1.66-.12,2.49-.07,4.93-3.72,7.19-8.41,5.3a2.18,2.18,0,0,1-1.4-2.31C54,63.67,54,61.85,54,60Z" transform="translate(-1 -0.92)"/><path class="cls-24" d="M58,82c-2.63.5-4.22-.19-3.93-3.27.13-1.31,0-2.65,0-4,0-5.33,3-7.32,8.16-5.61a2.05,2.05,0,0,1,1.64,2.13q0,4.23,0,8.46c0,2.93-2.09,2.38-3.89,2.27-1.42-1.3-.82-3-1-4.39C58.86,79,59.39,80.68,58,82Z" transform="translate(-1 -0.92)"/><path class="cls-25" d="M58,82c.25-3.11-.45-6.33,1-9.37,1.46,3,.76,6.26,1,9.37Z" transform="translate(-1 -0.92)"/><path class="cls-26" d="M63.46,84.52c-.73,1.46-2.15,1.79-2.78.81-1.07-1.64.77-1.13,1.49-1.27C62.53,84,63,84.34,63.46,84.52Z" transform="translate(-1 -0.92)"/><path class="cls-26" d="M56.18,85.74c-.66-.07-1.45-.2-1.45-1,0-.93.89-.71,1.45-.71s1.46-.1,1.45.82S56.85,85.75,56.18,85.74Z" transform="translate(-1 -0.92)"/><path class="cls-20" d="M51.17,82.83l.7-.7Z" transform="translate(-1 -0.92)"/><path class="cls-23" d="M62,46l1,1c.41,1.67,1.14,3.32.22,5,.27,1.17-.61,1.47-1.38,1.85a6.68,6.68,0,0,1-5.65,0L54.11,51l.12-2.94,2.83-2.82A7.5,7.5,0,0,1,62,46Z" transform="translate(-1 -0.92)"/><path class="cls-27" d="M74.79,57a4,4,0,0,1,.07.92l-1.79,1.21-4-.24C68.67,54.44,72,56.37,74,56.12Z" transform="translate(-1 -0.92)"/><path class="cls-28" d="M44.94,59.15a4.2,4.2,0,0,0-.87-.18l-.75-1.88.71-.93c2,.25,5.25-1.73,4.89,2.74Z" transform="translate(-1 -0.92)"/><path class="cls-29" d="M61.83,53.92l1.38-1.85L64,53a.73.73,0,0,1,.35.71c0,.27-.12.4-.19.4A.79.79,0,0,1,63,54Z" transform="translate(-1 -0.92)"/><path class="cls-30" d="M63,54h1c.3-.38.61-.41.93,0C64.34,55,63.69,55.08,63,54Z" transform="translate(-1 -0.92)"/><path class="cls-23" d="M57.92,57q1.08-1.9,2.16,0l-.46.42a2,2,0,0,1-1.24,0Z" transform="translate(-1 -0.92)"/><path class="cls-20" d="M57.9,58.1l-1-1.07h1L58,57l.33.6Z" transform="translate(-1 -0.92)"/><path class="cls-31" d="M65,54,64,54a8.35,8.35,0,0,1,0-1h1A3.5,3.5,0,0,1,65,54Z" transform="translate(-1 -0.92)"/><path class="cls-20" d="M61.09,57l-1,1.07-.45-.52L60,57l.1.06Z" transform="translate(-1 -0.92)"/><path class="cls-32" d="M78.18,73l.87-.86,1.79-.12A2.46,2.46,0,0,1,81,75l-3-.11Z" transform="translate(-1 -0.92)"/><path class="cls-33" d="M40,83l-1,.2L36.93,83l-.81-2A2.79,2.79,0,0,1,40,81C40,81.66,40,82.31,40,83Z" transform="translate(-1 -0.92)"/><path class="cls-34" d="M36.18,68.83l.06-1.78a2.52,2.52,0,0,1,3.62,0L39,69Z" transform="translate(-1 -0.92)"/><path class="cls-35" d="M81.74,50.06a2.94,2.94,0,0,1,0,.89,2.43,2.43,0,0,1-3.74,0c0-.3.06-.59.08-.88A2.48,2.48,0,0,1,81.74,50.06Z" transform="translate(-1 -0.92)"/><path class="cls-36" d="M37.19,43.94l-1.07-1L38,40.09,40,41.16c-.05.6-.09,1.19-.13,1.79Z" transform="translate(-1 -0.92)"/><path class="cls-20" d="M60.1,58.1c-.15.75-.34,1.62-1.31,1.38-.39-.1-.6-.9-.89-1.38L58,58a1.34,1.34,0,0,1,2,0Z" transform="translate(-1 -0.92)"/><path class="cls-30" d="M60,58H58c0-.34,0-.68,0-1h2C60,57.33,60,57.67,60,58Z" transform="translate(-1 -0.92)"/></g></g></g></svg>