<svg xmlns="http://www.w3.org/2000/svg" viewBox="0 0 120.13 131.13"><defs><style>.cls-1{isolation:isolate;}.cls-2{fill:#fefefe;}.cls-3{fill:#daf2fc;}.cls-4{fill:#f9f9f9;}.cls-5{fill:#76d2f5;}.cls-6{fill:#7ad3f5;}.cls-7{fill:#52c6f3;}.cls-8{fill:#6ecff4;}.cls-9{fill:#4cc4f2;}.cls-10{fill:#4ac3f2;}.cls-11{fill:#88d5f6;}.cls-12{fill:#64cbf4;}.cls-13{fill:#d6f1fc;}.cls-14{fill:#d4f0fb;}.cls-15{fill:#5ac8f3;}.cls-16{fill:#7ad0f5;}.cls-17{fill:#d9f2fc;}.cls-18{fill:#5ec9f3;}.cls-19{fill:#56c7f3;}</style></defs><title>Recurso 12</title><g id="Capa_2" data-name="Capa 2"><g id="Iconos" class="cls-1"><g id="Capa_3_Imagen" data-name="Capa 3 Imagen"><path class="cls-2" d="M1,66.5C1,45.67,1.05,24.83.93,4,.92,1.5,1.5.93,4,.94q57,.14,114,0c2.5,0,3.07.56,3.06,3.06q-.14,62.51,0,125c0,2.5-.56,3.07-3.06,3.06q-57-.13-114,0c-2.5,0-3.08-.56-3.07-3.06C1.05,108.17,1,87.33,1,66.5Z" transform="translate(-0.93 -0.94)"/><path class="cls-3" d="M60,117.9C23.69,118.45-1.49,79.71,14.93,46c1.41-2.91,2.56-4.1,5.87-2.21,6.83,3.89,13.67,2.74,19.58-1.89s9-11.1,7-18.92c-.73-2.91.12-3.55,2.92-4.16,26.5-5.72,53.84,12.54,58.71,39.41,5.28,29.13-13.33,55.23-42.57,59.61A43.77,43.77,0,0,1,60,117.9Z" transform="translate(-0.93 -0.94)"/><path class="cls-4" d="M18.84,11.34c6.72-4.48,13.51-4.43,20.33-.05C32.34,8.36,25.57,8.21,18.84,11.34Z" transform="translate(-0.93 -0.94)"/><path class="cls-4" d="M13.34,16.73c-2.7,11.76-2.7,11.76.2,20.3C8.62,32.19,8.52,23,13.34,16.73Z" transform="translate(-0.93 -0.94)"/><path class="cls-5" d="M32,28.1c3.25,2.58,3,4.59-.95,6-.55-.38-.55-.76,0-1.13a3.65,3.65,0,0,0-.09-3.94C31,28.44,31.55,28.36,32,28.1Z" transform="translate(-0.93 -0.94)"/><path class="cls-6" d="M31,33v1.13c-2.16.86-4.32,1.4-7,0C26.33,32.05,28.88,33.67,31,33Z" transform="translate(-0.93 -0.94)"/><path class="cls-7" d="M32,28.1l-1,1L28,28.64c.33-1.68,1.91-1.9,3-2.68.81-.32,1.16-.11.94.79C31.31,27.23,31.29,27.69,32,28.1Z" transform="translate(-0.93 -0.94)"/><path class="cls-5" d="M30,22.73c-1.79-.17-3.58,1.07-5.51.21a2.68,2.68,0,0,1,2.61-1.8C27.82,22.12,29.91,20.59,30,22.73Z" transform="translate(-0.93 -0.94)"/><path class="cls-8" d="M31.87,26.75,30.93,26l.12-3a.69.69,0,0,1,.73-.57C34.26,23.8,33.53,25.26,31.87,26.75Z" transform="translate(-0.93 -0.94)"/><path class="cls-9" d="M31.78,22.4a2.26,2.26,0,0,1-.73.57L30,22.73l-2.91-1.59C28.74,21.22,30.71,20.14,31.78,22.4Z" transform="translate(-0.93 -0.94)"/><path class="cls-10" d="M36.14,77.89c0-8.49,0-17-.19-25.47-.06-2.93,1.11-3.65,3.82-3.63q20.23.14,40.46,0c2.71,0,3.88.7,3.82,3.63-.19,8.49-.14,17-.19,25.47-1.23,1.09-1.86.38-2.34-.79a7.32,7.32,0,0,1,0-1.62c.18-6.46,0-12.93.06-19.39,0-1.63.29-3.4-1.59-4.37-13.38-.38-26.75-.43-40.1,0-2,1.16-1.53,3.13-1.53,4.88,0,6.27-.11,12.54.06,18.81a8.86,8.86,0,0,1,0,1.63C38,78.25,37.39,79,36.14,77.89Z" transform="translate(-0.93 -0.94)"/><path class="cls-11" d="M82.05,77.06a1.74,1.74,0,0,0,1.81.83c-3.6,2.16-7.55.65-11.33,1-2.42.23-4.87.18-7.31.26-.94-.36-1.51.49-2.28.69a12.27,12.27,0,0,1-5.93,0c-.73-.25-1.28-1.1-2.23-.69-4.72-.08-9.44-.1-14.16-.26-1.53-.06-3.31.69-4.49-1A1.75,1.75,0,0,0,38,77.06c1.22-1.45,2.94-1.43,4.59-1.43q17.46-.1,34.92,0C79.11,75.63,80.83,75.61,82.05,77.06Z" transform="translate(-0.93 -0.94)"/><path class="cls-12" d="M63.82,79.2c.45-.9.92-.8,1.4,0C63.64,82.51,68.68,83,68.07,86A2,2,0,0,1,66,86.3a16.64,16.64,0,0,0-12,0A2,2,0,0,1,51.93,86c-.61-2.92,4.42-3.46,2.86-6.78.47-.78.94-.88,1.39,0Q60,84.2,63.82,79.2Z" transform="translate(-0.93 -0.94)"/><path class="cls-10" d="M51.93,86h2.15a16.45,16.45,0,0,1,11.84,0h2.15c.33.32,2.21.86.58,1-6.24.43-12.52.17-19.05.17C50.32,85.67,51.23,86.16,51.93,86Z" transform="translate(-0.93 -0.94)"/><path class="cls-13" d="M82.05,77.06H38l0,0a154,154,0,0,1,.13-27H81.94a154,154,0,0,1,.13,27Z" transform="translate(-0.93 -0.94)"/><path class="cls-11" d="M38.06,50q-.06,13.5-.13,27c-2.13-6.74-.56-13.65-.89-20.48C36.94,54.41,36,51.92,38.06,50Z" transform="translate(-0.93 -0.94)"/><path class="cls-11" d="M82.07,77q-.06-13.5-.13-27c1.87,1.35,1.14,3.36,1,5C82.52,62.38,84.27,69.79,82.07,77Z" transform="translate(-0.93 -0.94)"/><path class="cls-14" d="M63.82,79.2C64.41,82.34,62.88,83,60,83s-4.4-.7-3.82-3.84Z" transform="translate(-0.93 -0.94)"/><path class="cls-3" d="M65.92,86H54.08C56.9,83.44,63.1,83.44,65.92,86Z" transform="translate(-0.93 -0.94)"/><path class="cls-15" d="M40.09,74c0-5.8,0-11.6-.16-17.4-.08-2.73.78-3.82,3.66-3.79q16.41.18,32.82,0c2.87,0,3.74,1.06,3.66,3.79-.18,5.8-.12,11.6-.16,17.4-1.14.89-1.86.45-2.36-.73a5,5,0,0,1,0-1.55c.23-3.91.08-7.84.09-11.76,0-1.6.31-3.38-1.78-4.09-10.65-.64-21.28-.27-31.9-.23-2,.84-1.58,2.68-1.59,4.24,0,3.94-.14,7.87.08,11.81a5.1,5.1,0,0,1,0,1.56C42,74.39,41.25,74.86,40.09,74Z" transform="translate(-0.93 -0.94)"/><path class="cls-16" d="M40.09,74A1.82,1.82,0,0,0,42,73.05c1.37-1.53,3.24-1.58,5.06-1.61q13-.16,25.94,0c1.82,0,3.69.08,5.06,1.61a1.82,1.82,0,0,0,1.88.91c-.57,1.08-1.6,1-2.58,1H42.67C41.69,75,40.66,75,40.09,74Z" transform="translate(-0.93 -0.94)"/><path class="cls-17" d="M78,73.05H42l0,0c-.59-6.33-.89-12.66.16-19H77.9c1,6.32.75,12.65.16,19Z" transform="translate(-0.93 -0.94)"/><path class="cls-16" d="M42.1,54q-.08,9.49-.16,19C40.48,66.68,40.19,60.35,42.1,54Z" transform="translate(-0.93 -0.94)"/><path class="cls-16" d="M78.06,73Q78,63.53,77.9,54C79.81,60.35,79.52,66.68,78.06,73Z" transform="translate(-0.93 -0.94)"/><path class="cls-10" d="M47.27,56.5c-3.74,1.13-1.48,4.6-2.71,6.74C43.1,57.54,43.41,56.72,47.27,56.5Z" transform="translate(-0.93 -0.94)"/><path class="cls-18" d="M62.54,58c-2,.06-3.91.84-6.61.88C58.4,56.23,60.47,57,62.54,58Z" transform="translate(-0.93 -0.94)"/><path class="cls-10" d="M60,65.12a2.06,2.06,0,0,1,2.42,2.22c0,1.45-1.22,1.56-2.41,1.26A2.35,2.35,0,0,1,60,65.12Z" transform="translate(-0.93 -0.94)"/><path class="cls-10" d="M60,65.12c0,1.16,0,2.33,0,3.49-1.07-.16-2.43-.15-2.32-1.67A1.88,1.88,0,0,1,60,65.12Z" transform="translate(-0.93 -0.94)"/><path class="cls-19" d="M62.22,62.1H57.94C59.45,60.54,60.57,60.66,62.22,62.1Z" transform="translate(-0.93 -0.94)"/></g></g></g></svg>